M48
; DRILL file {KiCad (5.1.8-0-10_14)} date Friday, May 21, 2021 at 03:45:25 PM
; FORMAT={-:-/ absolute / inch / decimal}
; #@! TF.CreationDate,2021-05-21T15:45:25-04:00
; #@! TF.GenerationSoftware,Kicad,Pcbnew,(5.1.8-0-10_14)
FMAT,2
INCH
T1C0.0157
T2C0.0429
T3C0.0673
T4C0.0827
%
G90
G05
T1
X4.9987Y-4.3713
X5.0537Y-3.8708
X5.0537Y-3.9558
X5.0994Y-4.3713
X5.1215Y-3.5637
X5.1431Y-3.8694
X5.1431Y-3.9558
X5.1933Y-3.4944
X5.1962Y-4.3713
X5.26Y-3.4252
X5.3209Y-3.9005
X5.3209Y-4.073
X5.33Y-3.5968
X5.362Y-3.6979
X5.3938Y-4.2354
X5.4244Y-3.9713
X5.4516Y-3.8071
X5.4869Y-4.214
X5.526Y-4.0348
X5.6274Y-3.2969
X5.6442Y-3.1809
X5.7341Y-3.9108
X5.7499Y-3.1809
X5.8411Y-4.0348
X5.8544Y-3.1809
X5.9663Y-3.3031
X6.0153Y-3.482
X6.0336Y-4.0033
X6.0532Y-4.2345
X6.1035Y-3.9538
X6.1404Y-3.5665
X6.1416Y-3.3552
X6.1729Y-3.8978
X6.2256Y-4.1385
X6.3414Y-3.4125
X6.3722Y-3.5325
X6.3726Y-3.6607
X6.4247Y-4.2104
X6.4816Y-3.893
X6.5157Y-4.2777
X6.542Y-3.1967
X6.5495Y-3.5511
X6.6038Y-3.8224
X6.605Y-3.8797
X6.6106Y-4.3713
X6.6797Y-3.7171
X6.7006Y-3.1967
X6.7049Y-3.345
X6.705Y-3.5723
X6.7126Y-4.3713
X6.7587Y-4.2625
X6.7667Y-3.8227
X6.7667Y-3.8982
X6.8132Y-4.3713
X6.8636Y-3.5156
X6.9793Y-3.1809
X7.0863Y-3.1809
X7.1382Y-4.1348
X7.1945Y-3.1809
X7.2162Y-4.0606
X7.293Y-3.9901
X7.3209Y-3.5829
X7.3209Y-3.6592
X7.3958Y-3.5829
X7.3958Y-3.6578
T2
X6.4686Y-3.4425
X6.6261Y-3.4425
X6.7835Y-3.4425
X6.941Y-3.4425
X7.1969Y-3.4425
X7.3544Y-3.4425
X7.5119Y-3.4425
X4.8761Y-4.1118
X5.0335Y-4.1118
X5.191Y-4.1118
X5.4469Y-4.1118
X5.6044Y-4.1118
X5.7619Y-4.1118
X5.9194Y-4.1118
X6.5227Y-4.033
X6.5227Y-4.1905
X6.6802Y-4.033
X6.6802Y-4.1905
X6.8377Y-4.033
X6.8377Y-4.1905
X6.9951Y-4.033
X5.3928Y-3.5212
X5.5503Y-3.3638
X5.5503Y-3.5212
X5.7077Y-3.3638
X5.7077Y-3.5212
X5.8652Y-3.3638
X5.8652Y-3.5212
T3
X5.5155Y-3.7221
X5.5702Y-3.8315
X5.6249Y-3.7221
X5.6797Y-3.8315
X5.7344Y-3.7221
X5.7891Y-3.8315
X5.8438Y-3.7221
X5.8986Y-3.8315
X5.9533Y-3.7221
X6.008Y-3.8315
X6.0627Y-3.7221
X6.1175Y-3.8315
X6.1722Y-3.7221
X6.2269Y-3.8315
X6.2816Y-3.7221
T4
X5.0859Y-3.7275
X7.3021Y-3.8268
T0
M30
