G04 #@! TF.GenerationSoftware,KiCad,Pcbnew,(5.1.8-0-10_14)*
G04 #@! TF.CreationDate,2021-05-21T15:45:23-04:00*
G04 #@! TF.ProjectId,TwinFamicom_Expansion,5477696e-4661-46d6-9963-6f6d5f457870,rev?*
G04 #@! TF.SameCoordinates,Original*
G04 #@! TF.FileFunction,Copper,L1,Top*
G04 #@! TF.FilePolarity,Positive*
%FSLAX46Y46*%
G04 Gerber Fmt 4.6, Leading zero omitted, Abs format (unit mm)*
G04 Created by KiCad (PCBNEW (5.1.8-0-10_14)) date 2021-05-21 15:45:23*
%MOMM*%
%LPD*%
G01*
G04 APERTURE LIST*
G04 #@! TA.AperFunction,ComponentPad*
%ADD10C,2.200000*%
G04 #@! TD*
G04 #@! TA.AperFunction,ComponentPad*
%ADD11C,2.180000*%
G04 #@! TD*
G04 #@! TA.AperFunction,ViaPad*
%ADD12C,0.800000*%
G04 #@! TD*
G04 #@! TA.AperFunction,ViaPad*
%ADD13C,4.800000*%
G04 #@! TD*
G04 #@! TA.AperFunction,Conductor*
%ADD14C,0.250000*%
G04 #@! TD*
G04 #@! TA.AperFunction,Conductor*
%ADD15C,0.254000*%
G04 #@! TD*
G04 #@! TA.AperFunction,Conductor*
%ADD16C,0.100000*%
G04 #@! TD*
G04 APERTURE END LIST*
D10*
X140093700Y-94541340D03*
X142873700Y-94541340D03*
X145653700Y-94541340D03*
X148433700Y-94541340D03*
X151213700Y-94541340D03*
X153993700Y-94541340D03*
X156773700Y-94541340D03*
X159553700Y-94541340D03*
X158163700Y-97321340D03*
X155383700Y-97321340D03*
X152603700Y-97321340D03*
X149823700Y-97321340D03*
X147043700Y-97321340D03*
X144263700Y-97321340D03*
X141483700Y-97321340D03*
D11*
X140976700Y-85439340D03*
X144976700Y-85439340D03*
X148976700Y-85439340D03*
X148976700Y-89439340D03*
X144976700Y-89439340D03*
X140976700Y-89439340D03*
X136976700Y-89439340D03*
X177676700Y-102439340D03*
X173676700Y-102439340D03*
X169676700Y-102439340D03*
X165676700Y-102439340D03*
X165676700Y-106439340D03*
X169676700Y-106439340D03*
X173676700Y-106439340D03*
X164301700Y-87439340D03*
X168301700Y-87439340D03*
X172301700Y-87439340D03*
X176301700Y-87439340D03*
X182801700Y-87439340D03*
X186801700Y-87439340D03*
X190801700Y-87439340D03*
X123851700Y-104439340D03*
X127851700Y-104439340D03*
X131851700Y-104439340D03*
X138351700Y-104439340D03*
X142351700Y-104439340D03*
X146351700Y-104439340D03*
X150351700Y-104439340D03*
D12*
X135150860Y-99072700D03*
D13*
X129180700Y-94677340D03*
X185472700Y-97201340D03*
D12*
X145646140Y-99334320D03*
X148363940Y-102483920D03*
X161864040Y-92981780D03*
X170307000Y-90736420D03*
X133604000Y-87000080D03*
X131909820Y-88757760D03*
X130086100Y-90517980D03*
X126966980Y-111031020D03*
X129524760Y-111031020D03*
X131983480Y-111031020D03*
X167909240Y-111031020D03*
X170500040Y-111031020D03*
X173055280Y-111031020D03*
X181310280Y-105023920D03*
X183291480Y-103139240D03*
X185242200Y-101348540D03*
X143362680Y-80794860D03*
X146047460Y-80794860D03*
X148701760Y-80794860D03*
X177274220Y-80794860D03*
X179992020Y-80794860D03*
X182740300Y-80794860D03*
X167736520Y-97088960D03*
X167767000Y-98544380D03*
X137779760Y-100871020D03*
X140360400Y-102483920D03*
X138470640Y-96700340D03*
X136194800Y-93926660D03*
X137002520Y-107579160D03*
X139367260Y-107035600D03*
X158130240Y-105117900D03*
X163187380Y-106944160D03*
X165498780Y-108653580D03*
X171670980Y-108267500D03*
X171874180Y-97096580D03*
X171874180Y-99014280D03*
X174335440Y-89296240D03*
X170304460Y-84963000D03*
X166166800Y-81196180D03*
X170195240Y-81196180D03*
X142935960Y-83741260D03*
X151544020Y-83898740D03*
X161071560Y-86677500D03*
X155996640Y-85222080D03*
X155966160Y-90589100D03*
X185950860Y-91005660D03*
X187853320Y-91005660D03*
X187853320Y-92908120D03*
X185950860Y-92943680D03*
X128363980Y-98318320D03*
X130634740Y-100477320D03*
X128363980Y-100477320D03*
X130634740Y-98282760D03*
X156791660Y-99004120D03*
X155028900Y-100426520D03*
X153253440Y-101683820D03*
X166357300Y-90197940D03*
X169664380Y-94414340D03*
X153751280Y-107556300D03*
X152788620Y-88442800D03*
X164632640Y-98882200D03*
X135150860Y-103454200D03*
X135382000Y-91358720D03*
X161853880Y-89725500D03*
D14*
X163629340Y-108475780D02*
X165658800Y-106446320D01*
X148433700Y-94541340D02*
X146353440Y-92461080D01*
X136255760Y-105547160D02*
X139184380Y-108475780D01*
X136255760Y-95234760D02*
X136255760Y-105547160D01*
X139184380Y-108475780D02*
X163629340Y-108475780D01*
X139029440Y-92461080D02*
X136255760Y-95234760D01*
X146353440Y-92461080D02*
X139029440Y-92461080D01*
X138457940Y-110253780D02*
X165935660Y-110253780D01*
X133934200Y-105730040D02*
X138457940Y-110253780D01*
X151213700Y-94541340D02*
X148084420Y-91412060D01*
X148084420Y-91412060D02*
X137317480Y-91412060D01*
X133934200Y-94795340D02*
X133934200Y-105730040D01*
X165935660Y-110253780D02*
X169699940Y-106489500D01*
X137317480Y-91412060D02*
X133934200Y-94795340D01*
X140599160Y-106692700D02*
X138348720Y-104442260D01*
X161429700Y-106692700D02*
X140599160Y-106692700D01*
X165676700Y-102445700D02*
X161429700Y-106692700D01*
X165676700Y-102439340D02*
X165676700Y-102445700D01*
X140975080Y-83197700D02*
X140975080Y-85359240D01*
X142036800Y-82135980D02*
X140975080Y-83197700D01*
X140975080Y-85359240D02*
X140952220Y-85382100D01*
X164304980Y-93106240D02*
X164304980Y-85018880D01*
X161422080Y-82135980D02*
X142036800Y-82135980D01*
X164304980Y-85018880D02*
X161422080Y-82135980D01*
X160089880Y-97321340D02*
X164304980Y-93106240D01*
X158163700Y-97321340D02*
X160089880Y-97321340D01*
X168257220Y-91569540D02*
X168257220Y-87416640D01*
X156326840Y-100251260D02*
X159575500Y-100251260D01*
X159575500Y-100251260D02*
X168257220Y-91569540D01*
X155383700Y-99308120D02*
X156326840Y-100251260D01*
X155383700Y-97321340D02*
X155383700Y-99308120D01*
X176321720Y-89819480D02*
X176321720Y-87457280D01*
X173413420Y-92727780D02*
X176321720Y-89819480D01*
X152603700Y-99512620D02*
X155064460Y-101973380D01*
X169420540Y-92727780D02*
X173413420Y-92727780D01*
X160174940Y-101973380D02*
X169420540Y-92727780D01*
X155064460Y-101973380D02*
X160174940Y-101973380D01*
X152603700Y-97321340D02*
X152603700Y-99512620D01*
X167073580Y-99888040D02*
X169679620Y-102494080D01*
X164627560Y-99888040D02*
X167073580Y-99888040D01*
X153736040Y-103703120D02*
X160812480Y-103703120D01*
X149823700Y-99790780D02*
X153736040Y-103703120D01*
X160812480Y-103703120D02*
X164627560Y-99888040D01*
X149823700Y-97321340D02*
X149823700Y-99790780D01*
X141483700Y-97321340D02*
X141483700Y-99601640D01*
X141483700Y-99601640D02*
X146204940Y-104322880D01*
D15*
X191682932Y-80641932D02*
X192590073Y-80846647D01*
X193456989Y-81183194D01*
X194264641Y-81644186D01*
X194995279Y-82219491D01*
X195632863Y-82896478D01*
X196163372Y-83660262D01*
X196575163Y-84494075D01*
X196859184Y-85379597D01*
X197010916Y-86307881D01*
X197035383Y-86895795D01*
X197034966Y-87152447D01*
X196963967Y-88129936D01*
X196758685Y-89059409D01*
X196421382Y-89949504D01*
X195959117Y-90781593D01*
X195371883Y-91550933D01*
X195099175Y-91840785D01*
X176804544Y-110179437D01*
X176239659Y-110652424D01*
X175629056Y-110991444D01*
X174965366Y-111208884D01*
X174240430Y-111300978D01*
X174195473Y-111301913D01*
X123131697Y-111302622D01*
X122235102Y-111129307D01*
X121358607Y-110819947D01*
X120537460Y-110384428D01*
X119789708Y-109832320D01*
X119131772Y-109175748D01*
X118578116Y-108429145D01*
X118140894Y-107608904D01*
X117829715Y-106733050D01*
X117650325Y-105815256D01*
X117639820Y-105638923D01*
X122831722Y-105638923D01*
X122938348Y-105912527D01*
X123243302Y-106062406D01*
X123571638Y-106149912D01*
X123910735Y-106171681D01*
X124247564Y-106126877D01*
X124569179Y-106017223D01*
X124765052Y-105912527D01*
X124871678Y-105638923D01*
X123851700Y-104618945D01*
X122831722Y-105638923D01*
X117639820Y-105638923D01*
X117605080Y-105055799D01*
X117605080Y-104509746D01*
X117605922Y-104498375D01*
X122119359Y-104498375D01*
X122164163Y-104835204D01*
X122273817Y-105156819D01*
X122378513Y-105352692D01*
X122652117Y-105459318D01*
X123672095Y-104439340D01*
X124031305Y-104439340D01*
X125051283Y-105459318D01*
X125324887Y-105352692D01*
X125474766Y-105047738D01*
X125562272Y-104719402D01*
X125584041Y-104380305D01*
X125569295Y-104269442D01*
X126126700Y-104269442D01*
X126126700Y-104609238D01*
X126192990Y-104942504D01*
X126323024Y-105256434D01*
X126511805Y-105538964D01*
X126752076Y-105779235D01*
X127034606Y-105968016D01*
X127348536Y-106098050D01*
X127681802Y-106164340D01*
X128021598Y-106164340D01*
X128354864Y-106098050D01*
X128668794Y-105968016D01*
X128951324Y-105779235D01*
X129191595Y-105538964D01*
X129380376Y-105256434D01*
X129510410Y-104942504D01*
X129576700Y-104609238D01*
X129576700Y-104269442D01*
X130126700Y-104269442D01*
X130126700Y-104609238D01*
X130192990Y-104942504D01*
X130323024Y-105256434D01*
X130511805Y-105538964D01*
X130752076Y-105779235D01*
X131034606Y-105968016D01*
X131348536Y-106098050D01*
X131681802Y-106164340D01*
X132021598Y-106164340D01*
X132354864Y-106098050D01*
X132668794Y-105968016D01*
X132951324Y-105779235D01*
X133174201Y-105556358D01*
X133174201Y-105692708D01*
X133170524Y-105730040D01*
X133174201Y-105767373D01*
X133180116Y-105827423D01*
X133185198Y-105879025D01*
X133228654Y-106022286D01*
X133299226Y-106154316D01*
X133365435Y-106234991D01*
X133394200Y-106270041D01*
X133423198Y-106293839D01*
X137894145Y-110764788D01*
X137917939Y-110793781D01*
X137946932Y-110817575D01*
X137946936Y-110817579D01*
X137993704Y-110855960D01*
X138033664Y-110888754D01*
X138165693Y-110959326D01*
X138308954Y-111002783D01*
X138420607Y-111013780D01*
X138420616Y-111013780D01*
X138457939Y-111017456D01*
X138495262Y-111013780D01*
X165898338Y-111013780D01*
X165935660Y-111017456D01*
X165972982Y-111013780D01*
X165972993Y-111013780D01*
X166084646Y-111002783D01*
X166227907Y-110959326D01*
X166359936Y-110888754D01*
X166475661Y-110793781D01*
X166499464Y-110764777D01*
X169168343Y-108095899D01*
X169173536Y-108098050D01*
X169506802Y-108164340D01*
X169846598Y-108164340D01*
X170179864Y-108098050D01*
X170493794Y-107968016D01*
X170776324Y-107779235D01*
X171016595Y-107538964D01*
X171205376Y-107256434D01*
X171335410Y-106942504D01*
X171401700Y-106609238D01*
X171401700Y-106269442D01*
X171951700Y-106269442D01*
X171951700Y-106609238D01*
X172017990Y-106942504D01*
X172148024Y-107256434D01*
X172336805Y-107538964D01*
X172577076Y-107779235D01*
X172859606Y-107968016D01*
X173173536Y-108098050D01*
X173506802Y-108164340D01*
X173846598Y-108164340D01*
X174179864Y-108098050D01*
X174493794Y-107968016D01*
X174776324Y-107779235D01*
X175016595Y-107538964D01*
X175205376Y-107256434D01*
X175335410Y-106942504D01*
X175401700Y-106609238D01*
X175401700Y-106269442D01*
X175335410Y-105936176D01*
X175205376Y-105622246D01*
X175016595Y-105339716D01*
X174776324Y-105099445D01*
X174493794Y-104910664D01*
X174179864Y-104780630D01*
X173846598Y-104714340D01*
X173506802Y-104714340D01*
X173173536Y-104780630D01*
X172859606Y-104910664D01*
X172577076Y-105099445D01*
X172336805Y-105339716D01*
X172148024Y-105622246D01*
X172017990Y-105936176D01*
X171951700Y-106269442D01*
X171401700Y-106269442D01*
X171335410Y-105936176D01*
X171205376Y-105622246D01*
X171016595Y-105339716D01*
X170776324Y-105099445D01*
X170493794Y-104910664D01*
X170179864Y-104780630D01*
X169846598Y-104714340D01*
X169506802Y-104714340D01*
X169173536Y-104780630D01*
X168859606Y-104910664D01*
X168577076Y-105099445D01*
X168336805Y-105339716D01*
X168148024Y-105622246D01*
X168017990Y-105936176D01*
X167951700Y-106269442D01*
X167951700Y-106609238D01*
X168017990Y-106942504D01*
X168063138Y-107051500D01*
X165620859Y-109493780D01*
X138772743Y-109493780D01*
X134694200Y-105415239D01*
X134694200Y-95110141D01*
X137632283Y-92172060D01*
X138243658Y-92172060D01*
X135744763Y-94670956D01*
X135715759Y-94694759D01*
X135663853Y-94758007D01*
X135620786Y-94810484D01*
X135608438Y-94833586D01*
X135550214Y-94942514D01*
X135506757Y-95085775D01*
X135495760Y-95197428D01*
X135495760Y-95197438D01*
X135492084Y-95234760D01*
X135495760Y-95272082D01*
X135495761Y-105509828D01*
X135492084Y-105547160D01*
X135495761Y-105584493D01*
X135506758Y-105696146D01*
X135519940Y-105739602D01*
X135550214Y-105839406D01*
X135620786Y-105971436D01*
X135691603Y-106057726D01*
X135715760Y-106087161D01*
X135744758Y-106110959D01*
X138620581Y-108986783D01*
X138644379Y-109015781D01*
X138673377Y-109039579D01*
X138760103Y-109110754D01*
X138882719Y-109176294D01*
X138892133Y-109181326D01*
X139035394Y-109224783D01*
X139147047Y-109235780D01*
X139147056Y-109235780D01*
X139184379Y-109239456D01*
X139221702Y-109235780D01*
X163592018Y-109235780D01*
X163629340Y-109239456D01*
X163666662Y-109235780D01*
X163666673Y-109235780D01*
X163778326Y-109224783D01*
X163921587Y-109181326D01*
X164053616Y-109110754D01*
X164169341Y-109015781D01*
X164193144Y-108986777D01*
X165108719Y-108071202D01*
X165173536Y-108098050D01*
X165506802Y-108164340D01*
X165846598Y-108164340D01*
X166179864Y-108098050D01*
X166493794Y-107968016D01*
X166776324Y-107779235D01*
X167016595Y-107538964D01*
X167205376Y-107256434D01*
X167335410Y-106942504D01*
X167401700Y-106609238D01*
X167401700Y-106269442D01*
X167335410Y-105936176D01*
X167205376Y-105622246D01*
X167016595Y-105339716D01*
X166776324Y-105099445D01*
X166493794Y-104910664D01*
X166179864Y-104780630D01*
X165846598Y-104714340D01*
X165506802Y-104714340D01*
X165173536Y-104780630D01*
X164859606Y-104910664D01*
X164577076Y-105099445D01*
X164336805Y-105339716D01*
X164148024Y-105622246D01*
X164017990Y-105936176D01*
X163951700Y-106269442D01*
X163951700Y-106609238D01*
X164017990Y-106942504D01*
X164038441Y-106991877D01*
X163314539Y-107715780D01*
X139499182Y-107715780D01*
X137889624Y-106106223D01*
X138181802Y-106164340D01*
X138521598Y-106164340D01*
X138854864Y-106098050D01*
X138907787Y-106076129D01*
X140035361Y-107203703D01*
X140059159Y-107232701D01*
X140174884Y-107327674D01*
X140306913Y-107398246D01*
X140450174Y-107441703D01*
X140561827Y-107452700D01*
X140561835Y-107452700D01*
X140599160Y-107456376D01*
X140636485Y-107452700D01*
X161392378Y-107452700D01*
X161429700Y-107456376D01*
X161467022Y-107452700D01*
X161467033Y-107452700D01*
X161578686Y-107441703D01*
X161721947Y-107398246D01*
X161853976Y-107327674D01*
X161969701Y-107232701D01*
X161993504Y-107203697D01*
X165120938Y-104076263D01*
X165173536Y-104098050D01*
X165506802Y-104164340D01*
X165846598Y-104164340D01*
X166179864Y-104098050D01*
X166493794Y-103968016D01*
X166776324Y-103779235D01*
X167016595Y-103538964D01*
X167205376Y-103256434D01*
X167335410Y-102942504D01*
X167401700Y-102609238D01*
X167401700Y-102269442D01*
X167335410Y-101936176D01*
X167205376Y-101622246D01*
X167016595Y-101339716D01*
X166776324Y-101099445D01*
X166493794Y-100910664D01*
X166179864Y-100780630D01*
X165846598Y-100714340D01*
X165506802Y-100714340D01*
X165173536Y-100780630D01*
X164859606Y-100910664D01*
X164577076Y-101099445D01*
X164336805Y-101339716D01*
X164148024Y-101622246D01*
X164017990Y-101936176D01*
X163951700Y-102269442D01*
X163951700Y-102609238D01*
X164017990Y-102942504D01*
X164043502Y-103004096D01*
X161114899Y-105932700D01*
X151221648Y-105932700D01*
X151451324Y-105779235D01*
X151691595Y-105538964D01*
X151880376Y-105256434D01*
X152010410Y-104942504D01*
X152076700Y-104609238D01*
X152076700Y-104269442D01*
X152010410Y-103936176D01*
X151880376Y-103622246D01*
X151691595Y-103339716D01*
X151451324Y-103099445D01*
X151168794Y-102910664D01*
X150854864Y-102780630D01*
X150521598Y-102714340D01*
X150181802Y-102714340D01*
X149848536Y-102780630D01*
X149534606Y-102910664D01*
X149252076Y-103099445D01*
X149011805Y-103339716D01*
X148823024Y-103622246D01*
X148692990Y-103936176D01*
X148626700Y-104269442D01*
X148626700Y-104609238D01*
X148692990Y-104942504D01*
X148823024Y-105256434D01*
X149011805Y-105538964D01*
X149252076Y-105779235D01*
X149481752Y-105932700D01*
X147221648Y-105932700D01*
X147451324Y-105779235D01*
X147691595Y-105538964D01*
X147880376Y-105256434D01*
X148010410Y-104942504D01*
X148076700Y-104609238D01*
X148076700Y-104269442D01*
X148010410Y-103936176D01*
X147880376Y-103622246D01*
X147691595Y-103339716D01*
X147451324Y-103099445D01*
X147168794Y-102910664D01*
X146854864Y-102780630D01*
X146521598Y-102714340D01*
X146181802Y-102714340D01*
X145848536Y-102780630D01*
X145770016Y-102813154D01*
X142243700Y-99286839D01*
X142243700Y-98884488D01*
X142305531Y-98858877D01*
X142589698Y-98669003D01*
X142831363Y-98427338D01*
X142873700Y-98363976D01*
X142916037Y-98427338D01*
X143157702Y-98669003D01*
X143441869Y-98858877D01*
X143757619Y-98989665D01*
X144092817Y-99056340D01*
X144434583Y-99056340D01*
X144769781Y-98989665D01*
X145085531Y-98858877D01*
X145369698Y-98669003D01*
X145611363Y-98427338D01*
X145653700Y-98363976D01*
X145696037Y-98427338D01*
X145937702Y-98669003D01*
X146221869Y-98858877D01*
X146537619Y-98989665D01*
X146872817Y-99056340D01*
X147214583Y-99056340D01*
X147549781Y-98989665D01*
X147865531Y-98858877D01*
X148149698Y-98669003D01*
X148391363Y-98427338D01*
X148433700Y-98363976D01*
X148476037Y-98427338D01*
X148717702Y-98669003D01*
X149001869Y-98858877D01*
X149063701Y-98884489D01*
X149063701Y-99753448D01*
X149060024Y-99790780D01*
X149063701Y-99828113D01*
X149074698Y-99939766D01*
X149080537Y-99959014D01*
X149118154Y-100083026D01*
X149188726Y-100215056D01*
X149238986Y-100276297D01*
X149283700Y-100330781D01*
X149312698Y-100354579D01*
X153172241Y-104214123D01*
X153196039Y-104243121D01*
X153311764Y-104338094D01*
X153443793Y-104408666D01*
X153587054Y-104452123D01*
X153698707Y-104463120D01*
X153698716Y-104463120D01*
X153736039Y-104466796D01*
X153773362Y-104463120D01*
X160775158Y-104463120D01*
X160812480Y-104466796D01*
X160849802Y-104463120D01*
X160849813Y-104463120D01*
X160961466Y-104452123D01*
X161104727Y-104408666D01*
X161236756Y-104338094D01*
X161352481Y-104243121D01*
X161376284Y-104214117D01*
X164942362Y-100648040D01*
X166758779Y-100648040D01*
X168026462Y-101915723D01*
X168017990Y-101936176D01*
X167951700Y-102269442D01*
X167951700Y-102609238D01*
X168017990Y-102942504D01*
X168148024Y-103256434D01*
X168336805Y-103538964D01*
X168577076Y-103779235D01*
X168859606Y-103968016D01*
X169173536Y-104098050D01*
X169506802Y-104164340D01*
X169846598Y-104164340D01*
X170179864Y-104098050D01*
X170493794Y-103968016D01*
X170776324Y-103779235D01*
X171016595Y-103538964D01*
X171205376Y-103256434D01*
X171335410Y-102942504D01*
X171401700Y-102609238D01*
X171401700Y-102269442D01*
X171951700Y-102269442D01*
X171951700Y-102609238D01*
X172017990Y-102942504D01*
X172148024Y-103256434D01*
X172336805Y-103538964D01*
X172577076Y-103779235D01*
X172859606Y-103968016D01*
X173173536Y-104098050D01*
X173506802Y-104164340D01*
X173846598Y-104164340D01*
X174179864Y-104098050D01*
X174493794Y-103968016D01*
X174776324Y-103779235D01*
X174916636Y-103638923D01*
X176656722Y-103638923D01*
X176763348Y-103912527D01*
X177068302Y-104062406D01*
X177396638Y-104149912D01*
X177735735Y-104171681D01*
X178072564Y-104126877D01*
X178394179Y-104017223D01*
X178590052Y-103912527D01*
X178696678Y-103638923D01*
X177676700Y-102618945D01*
X176656722Y-103638923D01*
X174916636Y-103638923D01*
X175016595Y-103538964D01*
X175205376Y-103256434D01*
X175335410Y-102942504D01*
X175401700Y-102609238D01*
X175401700Y-102498375D01*
X175944359Y-102498375D01*
X175989163Y-102835204D01*
X176098817Y-103156819D01*
X176203513Y-103352692D01*
X176477117Y-103459318D01*
X177497095Y-102439340D01*
X177856305Y-102439340D01*
X178876283Y-103459318D01*
X179149887Y-103352692D01*
X179299766Y-103047738D01*
X179387272Y-102719402D01*
X179409041Y-102380305D01*
X179364237Y-102043476D01*
X179254583Y-101721861D01*
X179149887Y-101525988D01*
X178876283Y-101419362D01*
X177856305Y-102439340D01*
X177497095Y-102439340D01*
X176477117Y-101419362D01*
X176203513Y-101525988D01*
X176053634Y-101830942D01*
X175966128Y-102159278D01*
X175944359Y-102498375D01*
X175401700Y-102498375D01*
X175401700Y-102269442D01*
X175335410Y-101936176D01*
X175205376Y-101622246D01*
X175016595Y-101339716D01*
X174916636Y-101239757D01*
X176656722Y-101239757D01*
X177676700Y-102259735D01*
X178696678Y-101239757D01*
X178590052Y-100966153D01*
X178285098Y-100816274D01*
X177956762Y-100728768D01*
X177617665Y-100706999D01*
X177280836Y-100751803D01*
X176959221Y-100861457D01*
X176763348Y-100966153D01*
X176656722Y-101239757D01*
X174916636Y-101239757D01*
X174776324Y-101099445D01*
X174493794Y-100910664D01*
X174179864Y-100780630D01*
X173846598Y-100714340D01*
X173506802Y-100714340D01*
X173173536Y-100780630D01*
X172859606Y-100910664D01*
X172577076Y-101099445D01*
X172336805Y-101339716D01*
X172148024Y-101622246D01*
X172017990Y-101936176D01*
X171951700Y-102269442D01*
X171401700Y-102269442D01*
X171335410Y-101936176D01*
X171205376Y-101622246D01*
X171016595Y-101339716D01*
X170776324Y-101099445D01*
X170493794Y-100910664D01*
X170179864Y-100780630D01*
X169846598Y-100714340D01*
X169506802Y-100714340D01*
X169173536Y-100780630D01*
X169079799Y-100819457D01*
X167637384Y-99377043D01*
X167613581Y-99348039D01*
X167497856Y-99253066D01*
X167365827Y-99182494D01*
X167222566Y-99139037D01*
X167110913Y-99128040D01*
X167110902Y-99128040D01*
X167073580Y-99124364D01*
X167036258Y-99128040D01*
X164664883Y-99128040D01*
X164627560Y-99124364D01*
X164590237Y-99128040D01*
X164590227Y-99128040D01*
X164478574Y-99139037D01*
X164352225Y-99177364D01*
X164335313Y-99182494D01*
X164203283Y-99253066D01*
X164136200Y-99308120D01*
X164087559Y-99348039D01*
X164063761Y-99377037D01*
X160497679Y-102943120D01*
X154050842Y-102943120D01*
X150583700Y-99475979D01*
X150583700Y-98884488D01*
X150645531Y-98858877D01*
X150929698Y-98669003D01*
X151171363Y-98427338D01*
X151213700Y-98363976D01*
X151256037Y-98427338D01*
X151497702Y-98669003D01*
X151781869Y-98858877D01*
X151843701Y-98884489D01*
X151843701Y-99475288D01*
X151840024Y-99512620D01*
X151843701Y-99549953D01*
X151854505Y-99659641D01*
X151854698Y-99661605D01*
X151898154Y-99804866D01*
X151968726Y-99936896D01*
X152031730Y-100013666D01*
X152063700Y-100052621D01*
X152092698Y-100076419D01*
X154500661Y-102484383D01*
X154524459Y-102513381D01*
X154640184Y-102608354D01*
X154772213Y-102678926D01*
X154915474Y-102722383D01*
X155027127Y-102733380D01*
X155027136Y-102733380D01*
X155064459Y-102737056D01*
X155101782Y-102733380D01*
X160137618Y-102733380D01*
X160174940Y-102737056D01*
X160212262Y-102733380D01*
X160212273Y-102733380D01*
X160323926Y-102722383D01*
X160467187Y-102678926D01*
X160599216Y-102608354D01*
X160714941Y-102513381D01*
X160738744Y-102484377D01*
X169735342Y-93487780D01*
X173376098Y-93487780D01*
X173413420Y-93491456D01*
X173450742Y-93487780D01*
X173450753Y-93487780D01*
X173562406Y-93476783D01*
X173705667Y-93433326D01*
X173837696Y-93362754D01*
X173953421Y-93267781D01*
X173977224Y-93238777D01*
X176832724Y-90383278D01*
X176861721Y-90359481D01*
X176956694Y-90243756D01*
X177027266Y-90111727D01*
X177070723Y-89968466D01*
X177081720Y-89856813D01*
X177081720Y-89856804D01*
X177085396Y-89819481D01*
X177081720Y-89782158D01*
X177081720Y-88983373D01*
X177118794Y-88968016D01*
X177401324Y-88779235D01*
X177641595Y-88538964D01*
X177830376Y-88256434D01*
X177960410Y-87942504D01*
X178026700Y-87609238D01*
X178026700Y-87269442D01*
X181076700Y-87269442D01*
X181076700Y-87609238D01*
X181142990Y-87942504D01*
X181273024Y-88256434D01*
X181461805Y-88538964D01*
X181702076Y-88779235D01*
X181984606Y-88968016D01*
X182298536Y-89098050D01*
X182631802Y-89164340D01*
X182971598Y-89164340D01*
X183304864Y-89098050D01*
X183618794Y-88968016D01*
X183901324Y-88779235D01*
X184141595Y-88538964D01*
X184330376Y-88256434D01*
X184460410Y-87942504D01*
X184526700Y-87609238D01*
X184526700Y-87269442D01*
X185076700Y-87269442D01*
X185076700Y-87609238D01*
X185142990Y-87942504D01*
X185273024Y-88256434D01*
X185461805Y-88538964D01*
X185702076Y-88779235D01*
X185984606Y-88968016D01*
X186298536Y-89098050D01*
X186631802Y-89164340D01*
X186971598Y-89164340D01*
X187304864Y-89098050D01*
X187618794Y-88968016D01*
X187901324Y-88779235D01*
X188041636Y-88638923D01*
X189781722Y-88638923D01*
X189888348Y-88912527D01*
X190193302Y-89062406D01*
X190521638Y-89149912D01*
X190860735Y-89171681D01*
X191197564Y-89126877D01*
X191519179Y-89017223D01*
X191715052Y-88912527D01*
X191821678Y-88638923D01*
X190801700Y-87618945D01*
X189781722Y-88638923D01*
X188041636Y-88638923D01*
X188141595Y-88538964D01*
X188330376Y-88256434D01*
X188460410Y-87942504D01*
X188526700Y-87609238D01*
X188526700Y-87498375D01*
X189069359Y-87498375D01*
X189114163Y-87835204D01*
X189223817Y-88156819D01*
X189328513Y-88352692D01*
X189602117Y-88459318D01*
X190622095Y-87439340D01*
X190981305Y-87439340D01*
X192001283Y-88459318D01*
X192274887Y-88352692D01*
X192424766Y-88047738D01*
X192512272Y-87719402D01*
X192534041Y-87380305D01*
X192489237Y-87043476D01*
X192379583Y-86721861D01*
X192274887Y-86525988D01*
X192001283Y-86419362D01*
X190981305Y-87439340D01*
X190622095Y-87439340D01*
X189602117Y-86419362D01*
X189328513Y-86525988D01*
X189178634Y-86830942D01*
X189091128Y-87159278D01*
X189069359Y-87498375D01*
X188526700Y-87498375D01*
X188526700Y-87269442D01*
X188460410Y-86936176D01*
X188330376Y-86622246D01*
X188141595Y-86339716D01*
X188041636Y-86239757D01*
X189781722Y-86239757D01*
X190801700Y-87259735D01*
X191821678Y-86239757D01*
X191715052Y-85966153D01*
X191410098Y-85816274D01*
X191081762Y-85728768D01*
X190742665Y-85706999D01*
X190405836Y-85751803D01*
X190084221Y-85861457D01*
X189888348Y-85966153D01*
X189781722Y-86239757D01*
X188041636Y-86239757D01*
X187901324Y-86099445D01*
X187618794Y-85910664D01*
X187304864Y-85780630D01*
X186971598Y-85714340D01*
X186631802Y-85714340D01*
X186298536Y-85780630D01*
X185984606Y-85910664D01*
X185702076Y-86099445D01*
X185461805Y-86339716D01*
X185273024Y-86622246D01*
X185142990Y-86936176D01*
X185076700Y-87269442D01*
X184526700Y-87269442D01*
X184460410Y-86936176D01*
X184330376Y-86622246D01*
X184141595Y-86339716D01*
X183901324Y-86099445D01*
X183618794Y-85910664D01*
X183304864Y-85780630D01*
X182971598Y-85714340D01*
X182631802Y-85714340D01*
X182298536Y-85780630D01*
X181984606Y-85910664D01*
X181702076Y-86099445D01*
X181461805Y-86339716D01*
X181273024Y-86622246D01*
X181142990Y-86936176D01*
X181076700Y-87269442D01*
X178026700Y-87269442D01*
X177960410Y-86936176D01*
X177830376Y-86622246D01*
X177641595Y-86339716D01*
X177401324Y-86099445D01*
X177118794Y-85910664D01*
X176804864Y-85780630D01*
X176471598Y-85714340D01*
X176131802Y-85714340D01*
X175798536Y-85780630D01*
X175484606Y-85910664D01*
X175202076Y-86099445D01*
X174961805Y-86339716D01*
X174773024Y-86622246D01*
X174642990Y-86936176D01*
X174576700Y-87269442D01*
X174576700Y-87609238D01*
X174642990Y-87942504D01*
X174773024Y-88256434D01*
X174961805Y-88538964D01*
X175202076Y-88779235D01*
X175484606Y-88968016D01*
X175561720Y-88999958D01*
X175561720Y-89504678D01*
X173098619Y-91967780D01*
X169457863Y-91967780D01*
X169420540Y-91964104D01*
X169383217Y-91967780D01*
X169383207Y-91967780D01*
X169271554Y-91978777D01*
X169128293Y-92022234D01*
X168996263Y-92092806D01*
X168913093Y-92161063D01*
X168880539Y-92187779D01*
X168856741Y-92216777D01*
X159860139Y-101213380D01*
X155379262Y-101213380D01*
X153363700Y-99197819D01*
X153363700Y-98884488D01*
X153425531Y-98858877D01*
X153709698Y-98669003D01*
X153951363Y-98427338D01*
X153993700Y-98363976D01*
X154036037Y-98427338D01*
X154277702Y-98669003D01*
X154561869Y-98858877D01*
X154623701Y-98884489D01*
X154623701Y-99270788D01*
X154620024Y-99308120D01*
X154623701Y-99345453D01*
X154634698Y-99457106D01*
X154645058Y-99491260D01*
X154678154Y-99600366D01*
X154748726Y-99732396D01*
X154819901Y-99819122D01*
X154843700Y-99848121D01*
X154872698Y-99871919D01*
X155763045Y-100762268D01*
X155786839Y-100791261D01*
X155815832Y-100815055D01*
X155815836Y-100815059D01*
X155872373Y-100861457D01*
X155902564Y-100886234D01*
X156034593Y-100956806D01*
X156177854Y-101000263D01*
X156289507Y-101011260D01*
X156289516Y-101011260D01*
X156326839Y-101014936D01*
X156364162Y-101011260D01*
X159538178Y-101011260D01*
X159575500Y-101014936D01*
X159612822Y-101011260D01*
X159612833Y-101011260D01*
X159724486Y-101000263D01*
X159867747Y-100956806D01*
X159999776Y-100886234D01*
X160115501Y-100791261D01*
X160139304Y-100762257D01*
X168768224Y-92133338D01*
X168797221Y-92109541D01*
X168892194Y-91993816D01*
X168962766Y-91861787D01*
X169006223Y-91718526D01*
X169017220Y-91606873D01*
X169017220Y-91606864D01*
X169020896Y-91569541D01*
X169017220Y-91532218D01*
X169017220Y-89010089D01*
X169118794Y-88968016D01*
X169401324Y-88779235D01*
X169641595Y-88538964D01*
X169830376Y-88256434D01*
X169960410Y-87942504D01*
X170026700Y-87609238D01*
X170026700Y-87269442D01*
X170576700Y-87269442D01*
X170576700Y-87609238D01*
X170642990Y-87942504D01*
X170773024Y-88256434D01*
X170961805Y-88538964D01*
X171202076Y-88779235D01*
X171484606Y-88968016D01*
X171798536Y-89098050D01*
X172131802Y-89164340D01*
X172471598Y-89164340D01*
X172804864Y-89098050D01*
X173118794Y-88968016D01*
X173401324Y-88779235D01*
X173641595Y-88538964D01*
X173830376Y-88256434D01*
X173960410Y-87942504D01*
X174026700Y-87609238D01*
X174026700Y-87269442D01*
X173960410Y-86936176D01*
X173830376Y-86622246D01*
X173641595Y-86339716D01*
X173401324Y-86099445D01*
X173118794Y-85910664D01*
X172804864Y-85780630D01*
X172471598Y-85714340D01*
X172131802Y-85714340D01*
X171798536Y-85780630D01*
X171484606Y-85910664D01*
X171202076Y-86099445D01*
X170961805Y-86339716D01*
X170773024Y-86622246D01*
X170642990Y-86936176D01*
X170576700Y-87269442D01*
X170026700Y-87269442D01*
X169960410Y-86936176D01*
X169830376Y-86622246D01*
X169641595Y-86339716D01*
X169401324Y-86099445D01*
X169118794Y-85910664D01*
X168804864Y-85780630D01*
X168471598Y-85714340D01*
X168131802Y-85714340D01*
X167798536Y-85780630D01*
X167484606Y-85910664D01*
X167202076Y-86099445D01*
X166961805Y-86339716D01*
X166773024Y-86622246D01*
X166642990Y-86936176D01*
X166576700Y-87269442D01*
X166576700Y-87609238D01*
X166642990Y-87942504D01*
X166773024Y-88256434D01*
X166961805Y-88538964D01*
X167202076Y-88779235D01*
X167484606Y-88968016D01*
X167497221Y-88973241D01*
X167497220Y-91254738D01*
X159260699Y-99491260D01*
X156641642Y-99491260D01*
X156143700Y-98993318D01*
X156143700Y-98884488D01*
X156205531Y-98858877D01*
X156489698Y-98669003D01*
X156731363Y-98427338D01*
X156773700Y-98363976D01*
X156816037Y-98427338D01*
X157057702Y-98669003D01*
X157341869Y-98858877D01*
X157657619Y-98989665D01*
X157992817Y-99056340D01*
X158334583Y-99056340D01*
X158669781Y-98989665D01*
X158985531Y-98858877D01*
X159269698Y-98669003D01*
X159511363Y-98427338D01*
X159701237Y-98143171D01*
X159726848Y-98081340D01*
X160052558Y-98081340D01*
X160089880Y-98085016D01*
X160127202Y-98081340D01*
X160127213Y-98081340D01*
X160238866Y-98070343D01*
X160382127Y-98026886D01*
X160514156Y-97956314D01*
X160629881Y-97861341D01*
X160653684Y-97832337D01*
X164815984Y-93670038D01*
X164844981Y-93646241D01*
X164939954Y-93530516D01*
X165010526Y-93398487D01*
X165053983Y-93255226D01*
X165064980Y-93143573D01*
X165064980Y-93143572D01*
X165068657Y-93106240D01*
X165064980Y-93068907D01*
X165064980Y-88990306D01*
X165118794Y-88968016D01*
X165401324Y-88779235D01*
X165641595Y-88538964D01*
X165830376Y-88256434D01*
X165960410Y-87942504D01*
X166026700Y-87609238D01*
X166026700Y-87269442D01*
X165960410Y-86936176D01*
X165830376Y-86622246D01*
X165641595Y-86339716D01*
X165401324Y-86099445D01*
X165118794Y-85910664D01*
X165064980Y-85888374D01*
X165064980Y-85056202D01*
X165068656Y-85018879D01*
X165064980Y-84981556D01*
X165064980Y-84981547D01*
X165053983Y-84869894D01*
X165010526Y-84726633D01*
X164939954Y-84594604D01*
X164844981Y-84478879D01*
X164815983Y-84455081D01*
X161985884Y-81624983D01*
X161962081Y-81595979D01*
X161846356Y-81501006D01*
X161714327Y-81430434D01*
X161571066Y-81386977D01*
X161459413Y-81375980D01*
X161459402Y-81375980D01*
X161422080Y-81372304D01*
X161384758Y-81375980D01*
X142074123Y-81375980D01*
X142036800Y-81372304D01*
X141999477Y-81375980D01*
X141999467Y-81375980D01*
X141887814Y-81386977D01*
X141744553Y-81430434D01*
X141612524Y-81501006D01*
X141496799Y-81595979D01*
X141473001Y-81624977D01*
X140464082Y-82633896D01*
X140435079Y-82657699D01*
X140379951Y-82724874D01*
X140340106Y-82773424D01*
X140295958Y-82856019D01*
X140269534Y-82905454D01*
X140226077Y-83048715D01*
X140215080Y-83160368D01*
X140215080Y-83160378D01*
X140211404Y-83197700D01*
X140215080Y-83235023D01*
X140215080Y-83887686D01*
X140159606Y-83910664D01*
X139877076Y-84099445D01*
X139636805Y-84339716D01*
X139448024Y-84622246D01*
X139317990Y-84936176D01*
X139251700Y-85269442D01*
X139251700Y-85609238D01*
X139317990Y-85942504D01*
X139448024Y-86256434D01*
X139636805Y-86538964D01*
X139877076Y-86779235D01*
X140159606Y-86968016D01*
X140473536Y-87098050D01*
X140806802Y-87164340D01*
X141146598Y-87164340D01*
X141479864Y-87098050D01*
X141793794Y-86968016D01*
X142076324Y-86779235D01*
X142316595Y-86538964D01*
X142505376Y-86256434D01*
X142635410Y-85942504D01*
X142701700Y-85609238D01*
X142701700Y-85269442D01*
X143251700Y-85269442D01*
X143251700Y-85609238D01*
X143317990Y-85942504D01*
X143448024Y-86256434D01*
X143636805Y-86538964D01*
X143877076Y-86779235D01*
X144159606Y-86968016D01*
X144473536Y-87098050D01*
X144806802Y-87164340D01*
X145146598Y-87164340D01*
X145479864Y-87098050D01*
X145793794Y-86968016D01*
X146076324Y-86779235D01*
X146316595Y-86538964D01*
X146505376Y-86256434D01*
X146635410Y-85942504D01*
X146701700Y-85609238D01*
X146701700Y-85269442D01*
X147251700Y-85269442D01*
X147251700Y-85609238D01*
X147317990Y-85942504D01*
X147448024Y-86256434D01*
X147636805Y-86538964D01*
X147877076Y-86779235D01*
X148159606Y-86968016D01*
X148473536Y-87098050D01*
X148806802Y-87164340D01*
X149146598Y-87164340D01*
X149479864Y-87098050D01*
X149793794Y-86968016D01*
X150076324Y-86779235D01*
X150316595Y-86538964D01*
X150505376Y-86256434D01*
X150635410Y-85942504D01*
X150701700Y-85609238D01*
X150701700Y-85269442D01*
X150635410Y-84936176D01*
X150505376Y-84622246D01*
X150316595Y-84339716D01*
X150076324Y-84099445D01*
X149793794Y-83910664D01*
X149479864Y-83780630D01*
X149146598Y-83714340D01*
X148806802Y-83714340D01*
X148473536Y-83780630D01*
X148159606Y-83910664D01*
X147877076Y-84099445D01*
X147636805Y-84339716D01*
X147448024Y-84622246D01*
X147317990Y-84936176D01*
X147251700Y-85269442D01*
X146701700Y-85269442D01*
X146635410Y-84936176D01*
X146505376Y-84622246D01*
X146316595Y-84339716D01*
X146076324Y-84099445D01*
X145793794Y-83910664D01*
X145479864Y-83780630D01*
X145146598Y-83714340D01*
X144806802Y-83714340D01*
X144473536Y-83780630D01*
X144159606Y-83910664D01*
X143877076Y-84099445D01*
X143636805Y-84339716D01*
X143448024Y-84622246D01*
X143317990Y-84936176D01*
X143251700Y-85269442D01*
X142701700Y-85269442D01*
X142635410Y-84936176D01*
X142505376Y-84622246D01*
X142316595Y-84339716D01*
X142076324Y-84099445D01*
X141793794Y-83910664D01*
X141735080Y-83886344D01*
X141735080Y-83512501D01*
X142351602Y-82895980D01*
X161107279Y-82895980D01*
X163544981Y-85333683D01*
X163544981Y-85885656D01*
X163484606Y-85910664D01*
X163202076Y-86099445D01*
X162961805Y-86339716D01*
X162773024Y-86622246D01*
X162642990Y-86936176D01*
X162576700Y-87269442D01*
X162576700Y-87609238D01*
X162642990Y-87942504D01*
X162773024Y-88256434D01*
X162961805Y-88538964D01*
X163202076Y-88779235D01*
X163484606Y-88968016D01*
X163544981Y-88993024D01*
X163544980Y-92791438D01*
X161174668Y-95161750D01*
X161222025Y-95047421D01*
X161288700Y-94712223D01*
X161288700Y-94370457D01*
X161222025Y-94035259D01*
X161091237Y-93719509D01*
X160901363Y-93435342D01*
X160659698Y-93193677D01*
X160375531Y-93003803D01*
X160059781Y-92873015D01*
X159724583Y-92806340D01*
X159382817Y-92806340D01*
X159047619Y-92873015D01*
X158731869Y-93003803D01*
X158447702Y-93193677D01*
X158206037Y-93435342D01*
X158163700Y-93498704D01*
X158121363Y-93435342D01*
X157879698Y-93193677D01*
X157595531Y-93003803D01*
X157279781Y-92873015D01*
X156944583Y-92806340D01*
X156602817Y-92806340D01*
X156267619Y-92873015D01*
X155951869Y-93003803D01*
X155667702Y-93193677D01*
X155426037Y-93435342D01*
X155383700Y-93498704D01*
X155341363Y-93435342D01*
X155099698Y-93193677D01*
X154815531Y-93003803D01*
X154499781Y-92873015D01*
X154164583Y-92806340D01*
X153822817Y-92806340D01*
X153487619Y-92873015D01*
X153171869Y-93003803D01*
X152887702Y-93193677D01*
X152646037Y-93435342D01*
X152603700Y-93498704D01*
X152561363Y-93435342D01*
X152319698Y-93193677D01*
X152035531Y-93003803D01*
X151719781Y-92873015D01*
X151384583Y-92806340D01*
X151042817Y-92806340D01*
X150707619Y-92873015D01*
X150645788Y-92898626D01*
X148911501Y-91164340D01*
X149146598Y-91164340D01*
X149479864Y-91098050D01*
X149793794Y-90968016D01*
X150076324Y-90779235D01*
X150316595Y-90538964D01*
X150505376Y-90256434D01*
X150635410Y-89942504D01*
X150701700Y-89609238D01*
X150701700Y-89269442D01*
X150635410Y-88936176D01*
X150505376Y-88622246D01*
X150316595Y-88339716D01*
X150076324Y-88099445D01*
X149793794Y-87910664D01*
X149479864Y-87780630D01*
X149146598Y-87714340D01*
X148806802Y-87714340D01*
X148473536Y-87780630D01*
X148159606Y-87910664D01*
X147877076Y-88099445D01*
X147636805Y-88339716D01*
X147448024Y-88622246D01*
X147317990Y-88936176D01*
X147251700Y-89269442D01*
X147251700Y-89609238D01*
X147317990Y-89942504D01*
X147448024Y-90256434D01*
X147636805Y-90538964D01*
X147749901Y-90652060D01*
X146203499Y-90652060D01*
X146316595Y-90538964D01*
X146505376Y-90256434D01*
X146635410Y-89942504D01*
X146701700Y-89609238D01*
X146701700Y-89269442D01*
X146635410Y-88936176D01*
X146505376Y-88622246D01*
X146316595Y-88339716D01*
X146076324Y-88099445D01*
X145793794Y-87910664D01*
X145479864Y-87780630D01*
X145146598Y-87714340D01*
X144806802Y-87714340D01*
X144473536Y-87780630D01*
X144159606Y-87910664D01*
X143877076Y-88099445D01*
X143636805Y-88339716D01*
X143448024Y-88622246D01*
X143317990Y-88936176D01*
X143251700Y-89269442D01*
X143251700Y-89609238D01*
X143317990Y-89942504D01*
X143448024Y-90256434D01*
X143636805Y-90538964D01*
X143749901Y-90652060D01*
X142203499Y-90652060D01*
X142316595Y-90538964D01*
X142505376Y-90256434D01*
X142635410Y-89942504D01*
X142701700Y-89609238D01*
X142701700Y-89269442D01*
X142635410Y-88936176D01*
X142505376Y-88622246D01*
X142316595Y-88339716D01*
X142076324Y-88099445D01*
X141793794Y-87910664D01*
X141479864Y-87780630D01*
X141146598Y-87714340D01*
X140806802Y-87714340D01*
X140473536Y-87780630D01*
X140159606Y-87910664D01*
X139877076Y-88099445D01*
X139636805Y-88339716D01*
X139448024Y-88622246D01*
X139317990Y-88936176D01*
X139251700Y-89269442D01*
X139251700Y-89609238D01*
X139317990Y-89942504D01*
X139448024Y-90256434D01*
X139636805Y-90538964D01*
X139749901Y-90652060D01*
X138214434Y-90652060D01*
X138291731Y-90574763D01*
X138176285Y-90459317D01*
X138449887Y-90352692D01*
X138599766Y-90047738D01*
X138687272Y-89719402D01*
X138709041Y-89380305D01*
X138664237Y-89043476D01*
X138554583Y-88721861D01*
X138449887Y-88525988D01*
X138176283Y-88419362D01*
X137156305Y-89439340D01*
X137170448Y-89453483D01*
X136990843Y-89633088D01*
X136976700Y-89618945D01*
X135956722Y-90638923D01*
X136063348Y-90912527D01*
X136368302Y-91062406D01*
X136545188Y-91109549D01*
X133423203Y-94231536D01*
X133394199Y-94255339D01*
X133339071Y-94322514D01*
X133299226Y-94371064D01*
X133245764Y-94471083D01*
X133228654Y-94503094D01*
X133185197Y-94646355D01*
X133174200Y-94758008D01*
X133174200Y-94758018D01*
X133170524Y-94795340D01*
X133174200Y-94832662D01*
X133174201Y-103322322D01*
X132951324Y-103099445D01*
X132668794Y-102910664D01*
X132354864Y-102780630D01*
X132021598Y-102714340D01*
X131681802Y-102714340D01*
X131348536Y-102780630D01*
X131034606Y-102910664D01*
X130752076Y-103099445D01*
X130511805Y-103339716D01*
X130323024Y-103622246D01*
X130192990Y-103936176D01*
X130126700Y-104269442D01*
X129576700Y-104269442D01*
X129510410Y-103936176D01*
X129380376Y-103622246D01*
X129191595Y-103339716D01*
X128951324Y-103099445D01*
X128668794Y-102910664D01*
X128354864Y-102780630D01*
X128021598Y-102714340D01*
X127681802Y-102714340D01*
X127348536Y-102780630D01*
X127034606Y-102910664D01*
X126752076Y-103099445D01*
X126511805Y-103339716D01*
X126323024Y-103622246D01*
X126192990Y-103936176D01*
X126126700Y-104269442D01*
X125569295Y-104269442D01*
X125539237Y-104043476D01*
X125429583Y-103721861D01*
X125324887Y-103525988D01*
X125051283Y-103419362D01*
X124031305Y-104439340D01*
X123672095Y-104439340D01*
X122652117Y-103419362D01*
X122378513Y-103525988D01*
X122228634Y-103830942D01*
X122141128Y-104159278D01*
X122119359Y-104498375D01*
X117605922Y-104498375D01*
X117675421Y-103560886D01*
X117748024Y-103239757D01*
X122831722Y-103239757D01*
X123851700Y-104259735D01*
X124871678Y-103239757D01*
X124765052Y-102966153D01*
X124460098Y-102816274D01*
X124131762Y-102728768D01*
X123792665Y-102706999D01*
X123455836Y-102751803D01*
X123134221Y-102861457D01*
X122938348Y-102966153D01*
X122831722Y-103239757D01*
X117748024Y-103239757D01*
X117878988Y-102660493D01*
X118213410Y-101800074D01*
X118671333Y-100998539D01*
X119257742Y-100254409D01*
X119326470Y-100180939D01*
X130063103Y-89498375D01*
X135244359Y-89498375D01*
X135289163Y-89835204D01*
X135398817Y-90156819D01*
X135503513Y-90352692D01*
X135777117Y-90459318D01*
X136797095Y-89439340D01*
X135777117Y-88419362D01*
X135503513Y-88525988D01*
X135353634Y-88830942D01*
X135266128Y-89159278D01*
X135244359Y-89498375D01*
X130063103Y-89498375D01*
X131328091Y-88239757D01*
X135956722Y-88239757D01*
X136976700Y-89259735D01*
X137996678Y-88239757D01*
X137890052Y-87966153D01*
X137585098Y-87816274D01*
X137256762Y-87728768D01*
X136917665Y-87706999D01*
X136580836Y-87751803D01*
X136259221Y-87861457D01*
X136063348Y-87966153D01*
X135956722Y-88239757D01*
X131328091Y-88239757D01*
X137836382Y-81764243D01*
X138423526Y-81275358D01*
X139058310Y-80919390D01*
X139747335Y-80685063D01*
X140489633Y-80577006D01*
X140748952Y-80571880D01*
X190727049Y-80571454D01*
X191682932Y-80641932D01*
G04 #@! TA.AperFunction,Conductor*
D16*
G36*
X191682932Y-80641932D02*
G01*
X192590073Y-80846647D01*
X193456989Y-81183194D01*
X194264641Y-81644186D01*
X194995279Y-82219491D01*
X195632863Y-82896478D01*
X196163372Y-83660262D01*
X196575163Y-84494075D01*
X196859184Y-85379597D01*
X197010916Y-86307881D01*
X197035383Y-86895795D01*
X197034966Y-87152447D01*
X196963967Y-88129936D01*
X196758685Y-89059409D01*
X196421382Y-89949504D01*
X195959117Y-90781593D01*
X195371883Y-91550933D01*
X195099175Y-91840785D01*
X176804544Y-110179437D01*
X176239659Y-110652424D01*
X175629056Y-110991444D01*
X174965366Y-111208884D01*
X174240430Y-111300978D01*
X174195473Y-111301913D01*
X123131697Y-111302622D01*
X122235102Y-111129307D01*
X121358607Y-110819947D01*
X120537460Y-110384428D01*
X119789708Y-109832320D01*
X119131772Y-109175748D01*
X118578116Y-108429145D01*
X118140894Y-107608904D01*
X117829715Y-106733050D01*
X117650325Y-105815256D01*
X117639820Y-105638923D01*
X122831722Y-105638923D01*
X122938348Y-105912527D01*
X123243302Y-106062406D01*
X123571638Y-106149912D01*
X123910735Y-106171681D01*
X124247564Y-106126877D01*
X124569179Y-106017223D01*
X124765052Y-105912527D01*
X124871678Y-105638923D01*
X123851700Y-104618945D01*
X122831722Y-105638923D01*
X117639820Y-105638923D01*
X117605080Y-105055799D01*
X117605080Y-104509746D01*
X117605922Y-104498375D01*
X122119359Y-104498375D01*
X122164163Y-104835204D01*
X122273817Y-105156819D01*
X122378513Y-105352692D01*
X122652117Y-105459318D01*
X123672095Y-104439340D01*
X124031305Y-104439340D01*
X125051283Y-105459318D01*
X125324887Y-105352692D01*
X125474766Y-105047738D01*
X125562272Y-104719402D01*
X125584041Y-104380305D01*
X125569295Y-104269442D01*
X126126700Y-104269442D01*
X126126700Y-104609238D01*
X126192990Y-104942504D01*
X126323024Y-105256434D01*
X126511805Y-105538964D01*
X126752076Y-105779235D01*
X127034606Y-105968016D01*
X127348536Y-106098050D01*
X127681802Y-106164340D01*
X128021598Y-106164340D01*
X128354864Y-106098050D01*
X128668794Y-105968016D01*
X128951324Y-105779235D01*
X129191595Y-105538964D01*
X129380376Y-105256434D01*
X129510410Y-104942504D01*
X129576700Y-104609238D01*
X129576700Y-104269442D01*
X130126700Y-104269442D01*
X130126700Y-104609238D01*
X130192990Y-104942504D01*
X130323024Y-105256434D01*
X130511805Y-105538964D01*
X130752076Y-105779235D01*
X131034606Y-105968016D01*
X131348536Y-106098050D01*
X131681802Y-106164340D01*
X132021598Y-106164340D01*
X132354864Y-106098050D01*
X132668794Y-105968016D01*
X132951324Y-105779235D01*
X133174201Y-105556358D01*
X133174201Y-105692708D01*
X133170524Y-105730040D01*
X133174201Y-105767373D01*
X133180116Y-105827423D01*
X133185198Y-105879025D01*
X133228654Y-106022286D01*
X133299226Y-106154316D01*
X133365435Y-106234991D01*
X133394200Y-106270041D01*
X133423198Y-106293839D01*
X137894145Y-110764788D01*
X137917939Y-110793781D01*
X137946932Y-110817575D01*
X137946936Y-110817579D01*
X137993704Y-110855960D01*
X138033664Y-110888754D01*
X138165693Y-110959326D01*
X138308954Y-111002783D01*
X138420607Y-111013780D01*
X138420616Y-111013780D01*
X138457939Y-111017456D01*
X138495262Y-111013780D01*
X165898338Y-111013780D01*
X165935660Y-111017456D01*
X165972982Y-111013780D01*
X165972993Y-111013780D01*
X166084646Y-111002783D01*
X166227907Y-110959326D01*
X166359936Y-110888754D01*
X166475661Y-110793781D01*
X166499464Y-110764777D01*
X169168343Y-108095899D01*
X169173536Y-108098050D01*
X169506802Y-108164340D01*
X169846598Y-108164340D01*
X170179864Y-108098050D01*
X170493794Y-107968016D01*
X170776324Y-107779235D01*
X171016595Y-107538964D01*
X171205376Y-107256434D01*
X171335410Y-106942504D01*
X171401700Y-106609238D01*
X171401700Y-106269442D01*
X171951700Y-106269442D01*
X171951700Y-106609238D01*
X172017990Y-106942504D01*
X172148024Y-107256434D01*
X172336805Y-107538964D01*
X172577076Y-107779235D01*
X172859606Y-107968016D01*
X173173536Y-108098050D01*
X173506802Y-108164340D01*
X173846598Y-108164340D01*
X174179864Y-108098050D01*
X174493794Y-107968016D01*
X174776324Y-107779235D01*
X175016595Y-107538964D01*
X175205376Y-107256434D01*
X175335410Y-106942504D01*
X175401700Y-106609238D01*
X175401700Y-106269442D01*
X175335410Y-105936176D01*
X175205376Y-105622246D01*
X175016595Y-105339716D01*
X174776324Y-105099445D01*
X174493794Y-104910664D01*
X174179864Y-104780630D01*
X173846598Y-104714340D01*
X173506802Y-104714340D01*
X173173536Y-104780630D01*
X172859606Y-104910664D01*
X172577076Y-105099445D01*
X172336805Y-105339716D01*
X172148024Y-105622246D01*
X172017990Y-105936176D01*
X171951700Y-106269442D01*
X171401700Y-106269442D01*
X171335410Y-105936176D01*
X171205376Y-105622246D01*
X171016595Y-105339716D01*
X170776324Y-105099445D01*
X170493794Y-104910664D01*
X170179864Y-104780630D01*
X169846598Y-104714340D01*
X169506802Y-104714340D01*
X169173536Y-104780630D01*
X168859606Y-104910664D01*
X168577076Y-105099445D01*
X168336805Y-105339716D01*
X168148024Y-105622246D01*
X168017990Y-105936176D01*
X167951700Y-106269442D01*
X167951700Y-106609238D01*
X168017990Y-106942504D01*
X168063138Y-107051500D01*
X165620859Y-109493780D01*
X138772743Y-109493780D01*
X134694200Y-105415239D01*
X134694200Y-95110141D01*
X137632283Y-92172060D01*
X138243658Y-92172060D01*
X135744763Y-94670956D01*
X135715759Y-94694759D01*
X135663853Y-94758007D01*
X135620786Y-94810484D01*
X135608438Y-94833586D01*
X135550214Y-94942514D01*
X135506757Y-95085775D01*
X135495760Y-95197428D01*
X135495760Y-95197438D01*
X135492084Y-95234760D01*
X135495760Y-95272082D01*
X135495761Y-105509828D01*
X135492084Y-105547160D01*
X135495761Y-105584493D01*
X135506758Y-105696146D01*
X135519940Y-105739602D01*
X135550214Y-105839406D01*
X135620786Y-105971436D01*
X135691603Y-106057726D01*
X135715760Y-106087161D01*
X135744758Y-106110959D01*
X138620581Y-108986783D01*
X138644379Y-109015781D01*
X138673377Y-109039579D01*
X138760103Y-109110754D01*
X138882719Y-109176294D01*
X138892133Y-109181326D01*
X139035394Y-109224783D01*
X139147047Y-109235780D01*
X139147056Y-109235780D01*
X139184379Y-109239456D01*
X139221702Y-109235780D01*
X163592018Y-109235780D01*
X163629340Y-109239456D01*
X163666662Y-109235780D01*
X163666673Y-109235780D01*
X163778326Y-109224783D01*
X163921587Y-109181326D01*
X164053616Y-109110754D01*
X164169341Y-109015781D01*
X164193144Y-108986777D01*
X165108719Y-108071202D01*
X165173536Y-108098050D01*
X165506802Y-108164340D01*
X165846598Y-108164340D01*
X166179864Y-108098050D01*
X166493794Y-107968016D01*
X166776324Y-107779235D01*
X167016595Y-107538964D01*
X167205376Y-107256434D01*
X167335410Y-106942504D01*
X167401700Y-106609238D01*
X167401700Y-106269442D01*
X167335410Y-105936176D01*
X167205376Y-105622246D01*
X167016595Y-105339716D01*
X166776324Y-105099445D01*
X166493794Y-104910664D01*
X166179864Y-104780630D01*
X165846598Y-104714340D01*
X165506802Y-104714340D01*
X165173536Y-104780630D01*
X164859606Y-104910664D01*
X164577076Y-105099445D01*
X164336805Y-105339716D01*
X164148024Y-105622246D01*
X164017990Y-105936176D01*
X163951700Y-106269442D01*
X163951700Y-106609238D01*
X164017990Y-106942504D01*
X164038441Y-106991877D01*
X163314539Y-107715780D01*
X139499182Y-107715780D01*
X137889624Y-106106223D01*
X138181802Y-106164340D01*
X138521598Y-106164340D01*
X138854864Y-106098050D01*
X138907787Y-106076129D01*
X140035361Y-107203703D01*
X140059159Y-107232701D01*
X140174884Y-107327674D01*
X140306913Y-107398246D01*
X140450174Y-107441703D01*
X140561827Y-107452700D01*
X140561835Y-107452700D01*
X140599160Y-107456376D01*
X140636485Y-107452700D01*
X161392378Y-107452700D01*
X161429700Y-107456376D01*
X161467022Y-107452700D01*
X161467033Y-107452700D01*
X161578686Y-107441703D01*
X161721947Y-107398246D01*
X161853976Y-107327674D01*
X161969701Y-107232701D01*
X161993504Y-107203697D01*
X165120938Y-104076263D01*
X165173536Y-104098050D01*
X165506802Y-104164340D01*
X165846598Y-104164340D01*
X166179864Y-104098050D01*
X166493794Y-103968016D01*
X166776324Y-103779235D01*
X167016595Y-103538964D01*
X167205376Y-103256434D01*
X167335410Y-102942504D01*
X167401700Y-102609238D01*
X167401700Y-102269442D01*
X167335410Y-101936176D01*
X167205376Y-101622246D01*
X167016595Y-101339716D01*
X166776324Y-101099445D01*
X166493794Y-100910664D01*
X166179864Y-100780630D01*
X165846598Y-100714340D01*
X165506802Y-100714340D01*
X165173536Y-100780630D01*
X164859606Y-100910664D01*
X164577076Y-101099445D01*
X164336805Y-101339716D01*
X164148024Y-101622246D01*
X164017990Y-101936176D01*
X163951700Y-102269442D01*
X163951700Y-102609238D01*
X164017990Y-102942504D01*
X164043502Y-103004096D01*
X161114899Y-105932700D01*
X151221648Y-105932700D01*
X151451324Y-105779235D01*
X151691595Y-105538964D01*
X151880376Y-105256434D01*
X152010410Y-104942504D01*
X152076700Y-104609238D01*
X152076700Y-104269442D01*
X152010410Y-103936176D01*
X151880376Y-103622246D01*
X151691595Y-103339716D01*
X151451324Y-103099445D01*
X151168794Y-102910664D01*
X150854864Y-102780630D01*
X150521598Y-102714340D01*
X150181802Y-102714340D01*
X149848536Y-102780630D01*
X149534606Y-102910664D01*
X149252076Y-103099445D01*
X149011805Y-103339716D01*
X148823024Y-103622246D01*
X148692990Y-103936176D01*
X148626700Y-104269442D01*
X148626700Y-104609238D01*
X148692990Y-104942504D01*
X148823024Y-105256434D01*
X149011805Y-105538964D01*
X149252076Y-105779235D01*
X149481752Y-105932700D01*
X147221648Y-105932700D01*
X147451324Y-105779235D01*
X147691595Y-105538964D01*
X147880376Y-105256434D01*
X148010410Y-104942504D01*
X148076700Y-104609238D01*
X148076700Y-104269442D01*
X148010410Y-103936176D01*
X147880376Y-103622246D01*
X147691595Y-103339716D01*
X147451324Y-103099445D01*
X147168794Y-102910664D01*
X146854864Y-102780630D01*
X146521598Y-102714340D01*
X146181802Y-102714340D01*
X145848536Y-102780630D01*
X145770016Y-102813154D01*
X142243700Y-99286839D01*
X142243700Y-98884488D01*
X142305531Y-98858877D01*
X142589698Y-98669003D01*
X142831363Y-98427338D01*
X142873700Y-98363976D01*
X142916037Y-98427338D01*
X143157702Y-98669003D01*
X143441869Y-98858877D01*
X143757619Y-98989665D01*
X144092817Y-99056340D01*
X144434583Y-99056340D01*
X144769781Y-98989665D01*
X145085531Y-98858877D01*
X145369698Y-98669003D01*
X145611363Y-98427338D01*
X145653700Y-98363976D01*
X145696037Y-98427338D01*
X145937702Y-98669003D01*
X146221869Y-98858877D01*
X146537619Y-98989665D01*
X146872817Y-99056340D01*
X147214583Y-99056340D01*
X147549781Y-98989665D01*
X147865531Y-98858877D01*
X148149698Y-98669003D01*
X148391363Y-98427338D01*
X148433700Y-98363976D01*
X148476037Y-98427338D01*
X148717702Y-98669003D01*
X149001869Y-98858877D01*
X149063701Y-98884489D01*
X149063701Y-99753448D01*
X149060024Y-99790780D01*
X149063701Y-99828113D01*
X149074698Y-99939766D01*
X149080537Y-99959014D01*
X149118154Y-100083026D01*
X149188726Y-100215056D01*
X149238986Y-100276297D01*
X149283700Y-100330781D01*
X149312698Y-100354579D01*
X153172241Y-104214123D01*
X153196039Y-104243121D01*
X153311764Y-104338094D01*
X153443793Y-104408666D01*
X153587054Y-104452123D01*
X153698707Y-104463120D01*
X153698716Y-104463120D01*
X153736039Y-104466796D01*
X153773362Y-104463120D01*
X160775158Y-104463120D01*
X160812480Y-104466796D01*
X160849802Y-104463120D01*
X160849813Y-104463120D01*
X160961466Y-104452123D01*
X161104727Y-104408666D01*
X161236756Y-104338094D01*
X161352481Y-104243121D01*
X161376284Y-104214117D01*
X164942362Y-100648040D01*
X166758779Y-100648040D01*
X168026462Y-101915723D01*
X168017990Y-101936176D01*
X167951700Y-102269442D01*
X167951700Y-102609238D01*
X168017990Y-102942504D01*
X168148024Y-103256434D01*
X168336805Y-103538964D01*
X168577076Y-103779235D01*
X168859606Y-103968016D01*
X169173536Y-104098050D01*
X169506802Y-104164340D01*
X169846598Y-104164340D01*
X170179864Y-104098050D01*
X170493794Y-103968016D01*
X170776324Y-103779235D01*
X171016595Y-103538964D01*
X171205376Y-103256434D01*
X171335410Y-102942504D01*
X171401700Y-102609238D01*
X171401700Y-102269442D01*
X171951700Y-102269442D01*
X171951700Y-102609238D01*
X172017990Y-102942504D01*
X172148024Y-103256434D01*
X172336805Y-103538964D01*
X172577076Y-103779235D01*
X172859606Y-103968016D01*
X173173536Y-104098050D01*
X173506802Y-104164340D01*
X173846598Y-104164340D01*
X174179864Y-104098050D01*
X174493794Y-103968016D01*
X174776324Y-103779235D01*
X174916636Y-103638923D01*
X176656722Y-103638923D01*
X176763348Y-103912527D01*
X177068302Y-104062406D01*
X177396638Y-104149912D01*
X177735735Y-104171681D01*
X178072564Y-104126877D01*
X178394179Y-104017223D01*
X178590052Y-103912527D01*
X178696678Y-103638923D01*
X177676700Y-102618945D01*
X176656722Y-103638923D01*
X174916636Y-103638923D01*
X175016595Y-103538964D01*
X175205376Y-103256434D01*
X175335410Y-102942504D01*
X175401700Y-102609238D01*
X175401700Y-102498375D01*
X175944359Y-102498375D01*
X175989163Y-102835204D01*
X176098817Y-103156819D01*
X176203513Y-103352692D01*
X176477117Y-103459318D01*
X177497095Y-102439340D01*
X177856305Y-102439340D01*
X178876283Y-103459318D01*
X179149887Y-103352692D01*
X179299766Y-103047738D01*
X179387272Y-102719402D01*
X179409041Y-102380305D01*
X179364237Y-102043476D01*
X179254583Y-101721861D01*
X179149887Y-101525988D01*
X178876283Y-101419362D01*
X177856305Y-102439340D01*
X177497095Y-102439340D01*
X176477117Y-101419362D01*
X176203513Y-101525988D01*
X176053634Y-101830942D01*
X175966128Y-102159278D01*
X175944359Y-102498375D01*
X175401700Y-102498375D01*
X175401700Y-102269442D01*
X175335410Y-101936176D01*
X175205376Y-101622246D01*
X175016595Y-101339716D01*
X174916636Y-101239757D01*
X176656722Y-101239757D01*
X177676700Y-102259735D01*
X178696678Y-101239757D01*
X178590052Y-100966153D01*
X178285098Y-100816274D01*
X177956762Y-100728768D01*
X177617665Y-100706999D01*
X177280836Y-100751803D01*
X176959221Y-100861457D01*
X176763348Y-100966153D01*
X176656722Y-101239757D01*
X174916636Y-101239757D01*
X174776324Y-101099445D01*
X174493794Y-100910664D01*
X174179864Y-100780630D01*
X173846598Y-100714340D01*
X173506802Y-100714340D01*
X173173536Y-100780630D01*
X172859606Y-100910664D01*
X172577076Y-101099445D01*
X172336805Y-101339716D01*
X172148024Y-101622246D01*
X172017990Y-101936176D01*
X171951700Y-102269442D01*
X171401700Y-102269442D01*
X171335410Y-101936176D01*
X171205376Y-101622246D01*
X171016595Y-101339716D01*
X170776324Y-101099445D01*
X170493794Y-100910664D01*
X170179864Y-100780630D01*
X169846598Y-100714340D01*
X169506802Y-100714340D01*
X169173536Y-100780630D01*
X169079799Y-100819457D01*
X167637384Y-99377043D01*
X167613581Y-99348039D01*
X167497856Y-99253066D01*
X167365827Y-99182494D01*
X167222566Y-99139037D01*
X167110913Y-99128040D01*
X167110902Y-99128040D01*
X167073580Y-99124364D01*
X167036258Y-99128040D01*
X164664883Y-99128040D01*
X164627560Y-99124364D01*
X164590237Y-99128040D01*
X164590227Y-99128040D01*
X164478574Y-99139037D01*
X164352225Y-99177364D01*
X164335313Y-99182494D01*
X164203283Y-99253066D01*
X164136200Y-99308120D01*
X164087559Y-99348039D01*
X164063761Y-99377037D01*
X160497679Y-102943120D01*
X154050842Y-102943120D01*
X150583700Y-99475979D01*
X150583700Y-98884488D01*
X150645531Y-98858877D01*
X150929698Y-98669003D01*
X151171363Y-98427338D01*
X151213700Y-98363976D01*
X151256037Y-98427338D01*
X151497702Y-98669003D01*
X151781869Y-98858877D01*
X151843701Y-98884489D01*
X151843701Y-99475288D01*
X151840024Y-99512620D01*
X151843701Y-99549953D01*
X151854505Y-99659641D01*
X151854698Y-99661605D01*
X151898154Y-99804866D01*
X151968726Y-99936896D01*
X152031730Y-100013666D01*
X152063700Y-100052621D01*
X152092698Y-100076419D01*
X154500661Y-102484383D01*
X154524459Y-102513381D01*
X154640184Y-102608354D01*
X154772213Y-102678926D01*
X154915474Y-102722383D01*
X155027127Y-102733380D01*
X155027136Y-102733380D01*
X155064459Y-102737056D01*
X155101782Y-102733380D01*
X160137618Y-102733380D01*
X160174940Y-102737056D01*
X160212262Y-102733380D01*
X160212273Y-102733380D01*
X160323926Y-102722383D01*
X160467187Y-102678926D01*
X160599216Y-102608354D01*
X160714941Y-102513381D01*
X160738744Y-102484377D01*
X169735342Y-93487780D01*
X173376098Y-93487780D01*
X173413420Y-93491456D01*
X173450742Y-93487780D01*
X173450753Y-93487780D01*
X173562406Y-93476783D01*
X173705667Y-93433326D01*
X173837696Y-93362754D01*
X173953421Y-93267781D01*
X173977224Y-93238777D01*
X176832724Y-90383278D01*
X176861721Y-90359481D01*
X176956694Y-90243756D01*
X177027266Y-90111727D01*
X177070723Y-89968466D01*
X177081720Y-89856813D01*
X177081720Y-89856804D01*
X177085396Y-89819481D01*
X177081720Y-89782158D01*
X177081720Y-88983373D01*
X177118794Y-88968016D01*
X177401324Y-88779235D01*
X177641595Y-88538964D01*
X177830376Y-88256434D01*
X177960410Y-87942504D01*
X178026700Y-87609238D01*
X178026700Y-87269442D01*
X181076700Y-87269442D01*
X181076700Y-87609238D01*
X181142990Y-87942504D01*
X181273024Y-88256434D01*
X181461805Y-88538964D01*
X181702076Y-88779235D01*
X181984606Y-88968016D01*
X182298536Y-89098050D01*
X182631802Y-89164340D01*
X182971598Y-89164340D01*
X183304864Y-89098050D01*
X183618794Y-88968016D01*
X183901324Y-88779235D01*
X184141595Y-88538964D01*
X184330376Y-88256434D01*
X184460410Y-87942504D01*
X184526700Y-87609238D01*
X184526700Y-87269442D01*
X185076700Y-87269442D01*
X185076700Y-87609238D01*
X185142990Y-87942504D01*
X185273024Y-88256434D01*
X185461805Y-88538964D01*
X185702076Y-88779235D01*
X185984606Y-88968016D01*
X186298536Y-89098050D01*
X186631802Y-89164340D01*
X186971598Y-89164340D01*
X187304864Y-89098050D01*
X187618794Y-88968016D01*
X187901324Y-88779235D01*
X188041636Y-88638923D01*
X189781722Y-88638923D01*
X189888348Y-88912527D01*
X190193302Y-89062406D01*
X190521638Y-89149912D01*
X190860735Y-89171681D01*
X191197564Y-89126877D01*
X191519179Y-89017223D01*
X191715052Y-88912527D01*
X191821678Y-88638923D01*
X190801700Y-87618945D01*
X189781722Y-88638923D01*
X188041636Y-88638923D01*
X188141595Y-88538964D01*
X188330376Y-88256434D01*
X188460410Y-87942504D01*
X188526700Y-87609238D01*
X188526700Y-87498375D01*
X189069359Y-87498375D01*
X189114163Y-87835204D01*
X189223817Y-88156819D01*
X189328513Y-88352692D01*
X189602117Y-88459318D01*
X190622095Y-87439340D01*
X190981305Y-87439340D01*
X192001283Y-88459318D01*
X192274887Y-88352692D01*
X192424766Y-88047738D01*
X192512272Y-87719402D01*
X192534041Y-87380305D01*
X192489237Y-87043476D01*
X192379583Y-86721861D01*
X192274887Y-86525988D01*
X192001283Y-86419362D01*
X190981305Y-87439340D01*
X190622095Y-87439340D01*
X189602117Y-86419362D01*
X189328513Y-86525988D01*
X189178634Y-86830942D01*
X189091128Y-87159278D01*
X189069359Y-87498375D01*
X188526700Y-87498375D01*
X188526700Y-87269442D01*
X188460410Y-86936176D01*
X188330376Y-86622246D01*
X188141595Y-86339716D01*
X188041636Y-86239757D01*
X189781722Y-86239757D01*
X190801700Y-87259735D01*
X191821678Y-86239757D01*
X191715052Y-85966153D01*
X191410098Y-85816274D01*
X191081762Y-85728768D01*
X190742665Y-85706999D01*
X190405836Y-85751803D01*
X190084221Y-85861457D01*
X189888348Y-85966153D01*
X189781722Y-86239757D01*
X188041636Y-86239757D01*
X187901324Y-86099445D01*
X187618794Y-85910664D01*
X187304864Y-85780630D01*
X186971598Y-85714340D01*
X186631802Y-85714340D01*
X186298536Y-85780630D01*
X185984606Y-85910664D01*
X185702076Y-86099445D01*
X185461805Y-86339716D01*
X185273024Y-86622246D01*
X185142990Y-86936176D01*
X185076700Y-87269442D01*
X184526700Y-87269442D01*
X184460410Y-86936176D01*
X184330376Y-86622246D01*
X184141595Y-86339716D01*
X183901324Y-86099445D01*
X183618794Y-85910664D01*
X183304864Y-85780630D01*
X182971598Y-85714340D01*
X182631802Y-85714340D01*
X182298536Y-85780630D01*
X181984606Y-85910664D01*
X181702076Y-86099445D01*
X181461805Y-86339716D01*
X181273024Y-86622246D01*
X181142990Y-86936176D01*
X181076700Y-87269442D01*
X178026700Y-87269442D01*
X177960410Y-86936176D01*
X177830376Y-86622246D01*
X177641595Y-86339716D01*
X177401324Y-86099445D01*
X177118794Y-85910664D01*
X176804864Y-85780630D01*
X176471598Y-85714340D01*
X176131802Y-85714340D01*
X175798536Y-85780630D01*
X175484606Y-85910664D01*
X175202076Y-86099445D01*
X174961805Y-86339716D01*
X174773024Y-86622246D01*
X174642990Y-86936176D01*
X174576700Y-87269442D01*
X174576700Y-87609238D01*
X174642990Y-87942504D01*
X174773024Y-88256434D01*
X174961805Y-88538964D01*
X175202076Y-88779235D01*
X175484606Y-88968016D01*
X175561720Y-88999958D01*
X175561720Y-89504678D01*
X173098619Y-91967780D01*
X169457863Y-91967780D01*
X169420540Y-91964104D01*
X169383217Y-91967780D01*
X169383207Y-91967780D01*
X169271554Y-91978777D01*
X169128293Y-92022234D01*
X168996263Y-92092806D01*
X168913093Y-92161063D01*
X168880539Y-92187779D01*
X168856741Y-92216777D01*
X159860139Y-101213380D01*
X155379262Y-101213380D01*
X153363700Y-99197819D01*
X153363700Y-98884488D01*
X153425531Y-98858877D01*
X153709698Y-98669003D01*
X153951363Y-98427338D01*
X153993700Y-98363976D01*
X154036037Y-98427338D01*
X154277702Y-98669003D01*
X154561869Y-98858877D01*
X154623701Y-98884489D01*
X154623701Y-99270788D01*
X154620024Y-99308120D01*
X154623701Y-99345453D01*
X154634698Y-99457106D01*
X154645058Y-99491260D01*
X154678154Y-99600366D01*
X154748726Y-99732396D01*
X154819901Y-99819122D01*
X154843700Y-99848121D01*
X154872698Y-99871919D01*
X155763045Y-100762268D01*
X155786839Y-100791261D01*
X155815832Y-100815055D01*
X155815836Y-100815059D01*
X155872373Y-100861457D01*
X155902564Y-100886234D01*
X156034593Y-100956806D01*
X156177854Y-101000263D01*
X156289507Y-101011260D01*
X156289516Y-101011260D01*
X156326839Y-101014936D01*
X156364162Y-101011260D01*
X159538178Y-101011260D01*
X159575500Y-101014936D01*
X159612822Y-101011260D01*
X159612833Y-101011260D01*
X159724486Y-101000263D01*
X159867747Y-100956806D01*
X159999776Y-100886234D01*
X160115501Y-100791261D01*
X160139304Y-100762257D01*
X168768224Y-92133338D01*
X168797221Y-92109541D01*
X168892194Y-91993816D01*
X168962766Y-91861787D01*
X169006223Y-91718526D01*
X169017220Y-91606873D01*
X169017220Y-91606864D01*
X169020896Y-91569541D01*
X169017220Y-91532218D01*
X169017220Y-89010089D01*
X169118794Y-88968016D01*
X169401324Y-88779235D01*
X169641595Y-88538964D01*
X169830376Y-88256434D01*
X169960410Y-87942504D01*
X170026700Y-87609238D01*
X170026700Y-87269442D01*
X170576700Y-87269442D01*
X170576700Y-87609238D01*
X170642990Y-87942504D01*
X170773024Y-88256434D01*
X170961805Y-88538964D01*
X171202076Y-88779235D01*
X171484606Y-88968016D01*
X171798536Y-89098050D01*
X172131802Y-89164340D01*
X172471598Y-89164340D01*
X172804864Y-89098050D01*
X173118794Y-88968016D01*
X173401324Y-88779235D01*
X173641595Y-88538964D01*
X173830376Y-88256434D01*
X173960410Y-87942504D01*
X174026700Y-87609238D01*
X174026700Y-87269442D01*
X173960410Y-86936176D01*
X173830376Y-86622246D01*
X173641595Y-86339716D01*
X173401324Y-86099445D01*
X173118794Y-85910664D01*
X172804864Y-85780630D01*
X172471598Y-85714340D01*
X172131802Y-85714340D01*
X171798536Y-85780630D01*
X171484606Y-85910664D01*
X171202076Y-86099445D01*
X170961805Y-86339716D01*
X170773024Y-86622246D01*
X170642990Y-86936176D01*
X170576700Y-87269442D01*
X170026700Y-87269442D01*
X169960410Y-86936176D01*
X169830376Y-86622246D01*
X169641595Y-86339716D01*
X169401324Y-86099445D01*
X169118794Y-85910664D01*
X168804864Y-85780630D01*
X168471598Y-85714340D01*
X168131802Y-85714340D01*
X167798536Y-85780630D01*
X167484606Y-85910664D01*
X167202076Y-86099445D01*
X166961805Y-86339716D01*
X166773024Y-86622246D01*
X166642990Y-86936176D01*
X166576700Y-87269442D01*
X166576700Y-87609238D01*
X166642990Y-87942504D01*
X166773024Y-88256434D01*
X166961805Y-88538964D01*
X167202076Y-88779235D01*
X167484606Y-88968016D01*
X167497221Y-88973241D01*
X167497220Y-91254738D01*
X159260699Y-99491260D01*
X156641642Y-99491260D01*
X156143700Y-98993318D01*
X156143700Y-98884488D01*
X156205531Y-98858877D01*
X156489698Y-98669003D01*
X156731363Y-98427338D01*
X156773700Y-98363976D01*
X156816037Y-98427338D01*
X157057702Y-98669003D01*
X157341869Y-98858877D01*
X157657619Y-98989665D01*
X157992817Y-99056340D01*
X158334583Y-99056340D01*
X158669781Y-98989665D01*
X158985531Y-98858877D01*
X159269698Y-98669003D01*
X159511363Y-98427338D01*
X159701237Y-98143171D01*
X159726848Y-98081340D01*
X160052558Y-98081340D01*
X160089880Y-98085016D01*
X160127202Y-98081340D01*
X160127213Y-98081340D01*
X160238866Y-98070343D01*
X160382127Y-98026886D01*
X160514156Y-97956314D01*
X160629881Y-97861341D01*
X160653684Y-97832337D01*
X164815984Y-93670038D01*
X164844981Y-93646241D01*
X164939954Y-93530516D01*
X165010526Y-93398487D01*
X165053983Y-93255226D01*
X165064980Y-93143573D01*
X165064980Y-93143572D01*
X165068657Y-93106240D01*
X165064980Y-93068907D01*
X165064980Y-88990306D01*
X165118794Y-88968016D01*
X165401324Y-88779235D01*
X165641595Y-88538964D01*
X165830376Y-88256434D01*
X165960410Y-87942504D01*
X166026700Y-87609238D01*
X166026700Y-87269442D01*
X165960410Y-86936176D01*
X165830376Y-86622246D01*
X165641595Y-86339716D01*
X165401324Y-86099445D01*
X165118794Y-85910664D01*
X165064980Y-85888374D01*
X165064980Y-85056202D01*
X165068656Y-85018879D01*
X165064980Y-84981556D01*
X165064980Y-84981547D01*
X165053983Y-84869894D01*
X165010526Y-84726633D01*
X164939954Y-84594604D01*
X164844981Y-84478879D01*
X164815983Y-84455081D01*
X161985884Y-81624983D01*
X161962081Y-81595979D01*
X161846356Y-81501006D01*
X161714327Y-81430434D01*
X161571066Y-81386977D01*
X161459413Y-81375980D01*
X161459402Y-81375980D01*
X161422080Y-81372304D01*
X161384758Y-81375980D01*
X142074123Y-81375980D01*
X142036800Y-81372304D01*
X141999477Y-81375980D01*
X141999467Y-81375980D01*
X141887814Y-81386977D01*
X141744553Y-81430434D01*
X141612524Y-81501006D01*
X141496799Y-81595979D01*
X141473001Y-81624977D01*
X140464082Y-82633896D01*
X140435079Y-82657699D01*
X140379951Y-82724874D01*
X140340106Y-82773424D01*
X140295958Y-82856019D01*
X140269534Y-82905454D01*
X140226077Y-83048715D01*
X140215080Y-83160368D01*
X140215080Y-83160378D01*
X140211404Y-83197700D01*
X140215080Y-83235023D01*
X140215080Y-83887686D01*
X140159606Y-83910664D01*
X139877076Y-84099445D01*
X139636805Y-84339716D01*
X139448024Y-84622246D01*
X139317990Y-84936176D01*
X139251700Y-85269442D01*
X139251700Y-85609238D01*
X139317990Y-85942504D01*
X139448024Y-86256434D01*
X139636805Y-86538964D01*
X139877076Y-86779235D01*
X140159606Y-86968016D01*
X140473536Y-87098050D01*
X140806802Y-87164340D01*
X141146598Y-87164340D01*
X141479864Y-87098050D01*
X141793794Y-86968016D01*
X142076324Y-86779235D01*
X142316595Y-86538964D01*
X142505376Y-86256434D01*
X142635410Y-85942504D01*
X142701700Y-85609238D01*
X142701700Y-85269442D01*
X143251700Y-85269442D01*
X143251700Y-85609238D01*
X143317990Y-85942504D01*
X143448024Y-86256434D01*
X143636805Y-86538964D01*
X143877076Y-86779235D01*
X144159606Y-86968016D01*
X144473536Y-87098050D01*
X144806802Y-87164340D01*
X145146598Y-87164340D01*
X145479864Y-87098050D01*
X145793794Y-86968016D01*
X146076324Y-86779235D01*
X146316595Y-86538964D01*
X146505376Y-86256434D01*
X146635410Y-85942504D01*
X146701700Y-85609238D01*
X146701700Y-85269442D01*
X147251700Y-85269442D01*
X147251700Y-85609238D01*
X147317990Y-85942504D01*
X147448024Y-86256434D01*
X147636805Y-86538964D01*
X147877076Y-86779235D01*
X148159606Y-86968016D01*
X148473536Y-87098050D01*
X148806802Y-87164340D01*
X149146598Y-87164340D01*
X149479864Y-87098050D01*
X149793794Y-86968016D01*
X150076324Y-86779235D01*
X150316595Y-86538964D01*
X150505376Y-86256434D01*
X150635410Y-85942504D01*
X150701700Y-85609238D01*
X150701700Y-85269442D01*
X150635410Y-84936176D01*
X150505376Y-84622246D01*
X150316595Y-84339716D01*
X150076324Y-84099445D01*
X149793794Y-83910664D01*
X149479864Y-83780630D01*
X149146598Y-83714340D01*
X148806802Y-83714340D01*
X148473536Y-83780630D01*
X148159606Y-83910664D01*
X147877076Y-84099445D01*
X147636805Y-84339716D01*
X147448024Y-84622246D01*
X147317990Y-84936176D01*
X147251700Y-85269442D01*
X146701700Y-85269442D01*
X146635410Y-84936176D01*
X146505376Y-84622246D01*
X146316595Y-84339716D01*
X146076324Y-84099445D01*
X145793794Y-83910664D01*
X145479864Y-83780630D01*
X145146598Y-83714340D01*
X144806802Y-83714340D01*
X144473536Y-83780630D01*
X144159606Y-83910664D01*
X143877076Y-84099445D01*
X143636805Y-84339716D01*
X143448024Y-84622246D01*
X143317990Y-84936176D01*
X143251700Y-85269442D01*
X142701700Y-85269442D01*
X142635410Y-84936176D01*
X142505376Y-84622246D01*
X142316595Y-84339716D01*
X142076324Y-84099445D01*
X141793794Y-83910664D01*
X141735080Y-83886344D01*
X141735080Y-83512501D01*
X142351602Y-82895980D01*
X161107279Y-82895980D01*
X163544981Y-85333683D01*
X163544981Y-85885656D01*
X163484606Y-85910664D01*
X163202076Y-86099445D01*
X162961805Y-86339716D01*
X162773024Y-86622246D01*
X162642990Y-86936176D01*
X162576700Y-87269442D01*
X162576700Y-87609238D01*
X162642990Y-87942504D01*
X162773024Y-88256434D01*
X162961805Y-88538964D01*
X163202076Y-88779235D01*
X163484606Y-88968016D01*
X163544981Y-88993024D01*
X163544980Y-92791438D01*
X161174668Y-95161750D01*
X161222025Y-95047421D01*
X161288700Y-94712223D01*
X161288700Y-94370457D01*
X161222025Y-94035259D01*
X161091237Y-93719509D01*
X160901363Y-93435342D01*
X160659698Y-93193677D01*
X160375531Y-93003803D01*
X160059781Y-92873015D01*
X159724583Y-92806340D01*
X159382817Y-92806340D01*
X159047619Y-92873015D01*
X158731869Y-93003803D01*
X158447702Y-93193677D01*
X158206037Y-93435342D01*
X158163700Y-93498704D01*
X158121363Y-93435342D01*
X157879698Y-93193677D01*
X157595531Y-93003803D01*
X157279781Y-92873015D01*
X156944583Y-92806340D01*
X156602817Y-92806340D01*
X156267619Y-92873015D01*
X155951869Y-93003803D01*
X155667702Y-93193677D01*
X155426037Y-93435342D01*
X155383700Y-93498704D01*
X155341363Y-93435342D01*
X155099698Y-93193677D01*
X154815531Y-93003803D01*
X154499781Y-92873015D01*
X154164583Y-92806340D01*
X153822817Y-92806340D01*
X153487619Y-92873015D01*
X153171869Y-93003803D01*
X152887702Y-93193677D01*
X152646037Y-93435342D01*
X152603700Y-93498704D01*
X152561363Y-93435342D01*
X152319698Y-93193677D01*
X152035531Y-93003803D01*
X151719781Y-92873015D01*
X151384583Y-92806340D01*
X151042817Y-92806340D01*
X150707619Y-92873015D01*
X150645788Y-92898626D01*
X148911501Y-91164340D01*
X149146598Y-91164340D01*
X149479864Y-91098050D01*
X149793794Y-90968016D01*
X150076324Y-90779235D01*
X150316595Y-90538964D01*
X150505376Y-90256434D01*
X150635410Y-89942504D01*
X150701700Y-89609238D01*
X150701700Y-89269442D01*
X150635410Y-88936176D01*
X150505376Y-88622246D01*
X150316595Y-88339716D01*
X150076324Y-88099445D01*
X149793794Y-87910664D01*
X149479864Y-87780630D01*
X149146598Y-87714340D01*
X148806802Y-87714340D01*
X148473536Y-87780630D01*
X148159606Y-87910664D01*
X147877076Y-88099445D01*
X147636805Y-88339716D01*
X147448024Y-88622246D01*
X147317990Y-88936176D01*
X147251700Y-89269442D01*
X147251700Y-89609238D01*
X147317990Y-89942504D01*
X147448024Y-90256434D01*
X147636805Y-90538964D01*
X147749901Y-90652060D01*
X146203499Y-90652060D01*
X146316595Y-90538964D01*
X146505376Y-90256434D01*
X146635410Y-89942504D01*
X146701700Y-89609238D01*
X146701700Y-89269442D01*
X146635410Y-88936176D01*
X146505376Y-88622246D01*
X146316595Y-88339716D01*
X146076324Y-88099445D01*
X145793794Y-87910664D01*
X145479864Y-87780630D01*
X145146598Y-87714340D01*
X144806802Y-87714340D01*
X144473536Y-87780630D01*
X144159606Y-87910664D01*
X143877076Y-88099445D01*
X143636805Y-88339716D01*
X143448024Y-88622246D01*
X143317990Y-88936176D01*
X143251700Y-89269442D01*
X143251700Y-89609238D01*
X143317990Y-89942504D01*
X143448024Y-90256434D01*
X143636805Y-90538964D01*
X143749901Y-90652060D01*
X142203499Y-90652060D01*
X142316595Y-90538964D01*
X142505376Y-90256434D01*
X142635410Y-89942504D01*
X142701700Y-89609238D01*
X142701700Y-89269442D01*
X142635410Y-88936176D01*
X142505376Y-88622246D01*
X142316595Y-88339716D01*
X142076324Y-88099445D01*
X141793794Y-87910664D01*
X141479864Y-87780630D01*
X141146598Y-87714340D01*
X140806802Y-87714340D01*
X140473536Y-87780630D01*
X140159606Y-87910664D01*
X139877076Y-88099445D01*
X139636805Y-88339716D01*
X139448024Y-88622246D01*
X139317990Y-88936176D01*
X139251700Y-89269442D01*
X139251700Y-89609238D01*
X139317990Y-89942504D01*
X139448024Y-90256434D01*
X139636805Y-90538964D01*
X139749901Y-90652060D01*
X138214434Y-90652060D01*
X138291731Y-90574763D01*
X138176285Y-90459317D01*
X138449887Y-90352692D01*
X138599766Y-90047738D01*
X138687272Y-89719402D01*
X138709041Y-89380305D01*
X138664237Y-89043476D01*
X138554583Y-88721861D01*
X138449887Y-88525988D01*
X138176283Y-88419362D01*
X137156305Y-89439340D01*
X137170448Y-89453483D01*
X136990843Y-89633088D01*
X136976700Y-89618945D01*
X135956722Y-90638923D01*
X136063348Y-90912527D01*
X136368302Y-91062406D01*
X136545188Y-91109549D01*
X133423203Y-94231536D01*
X133394199Y-94255339D01*
X133339071Y-94322514D01*
X133299226Y-94371064D01*
X133245764Y-94471083D01*
X133228654Y-94503094D01*
X133185197Y-94646355D01*
X133174200Y-94758008D01*
X133174200Y-94758018D01*
X133170524Y-94795340D01*
X133174200Y-94832662D01*
X133174201Y-103322322D01*
X132951324Y-103099445D01*
X132668794Y-102910664D01*
X132354864Y-102780630D01*
X132021598Y-102714340D01*
X131681802Y-102714340D01*
X131348536Y-102780630D01*
X131034606Y-102910664D01*
X130752076Y-103099445D01*
X130511805Y-103339716D01*
X130323024Y-103622246D01*
X130192990Y-103936176D01*
X130126700Y-104269442D01*
X129576700Y-104269442D01*
X129510410Y-103936176D01*
X129380376Y-103622246D01*
X129191595Y-103339716D01*
X128951324Y-103099445D01*
X128668794Y-102910664D01*
X128354864Y-102780630D01*
X128021598Y-102714340D01*
X127681802Y-102714340D01*
X127348536Y-102780630D01*
X127034606Y-102910664D01*
X126752076Y-103099445D01*
X126511805Y-103339716D01*
X126323024Y-103622246D01*
X126192990Y-103936176D01*
X126126700Y-104269442D01*
X125569295Y-104269442D01*
X125539237Y-104043476D01*
X125429583Y-103721861D01*
X125324887Y-103525988D01*
X125051283Y-103419362D01*
X124031305Y-104439340D01*
X123672095Y-104439340D01*
X122652117Y-103419362D01*
X122378513Y-103525988D01*
X122228634Y-103830942D01*
X122141128Y-104159278D01*
X122119359Y-104498375D01*
X117605922Y-104498375D01*
X117675421Y-103560886D01*
X117748024Y-103239757D01*
X122831722Y-103239757D01*
X123851700Y-104259735D01*
X124871678Y-103239757D01*
X124765052Y-102966153D01*
X124460098Y-102816274D01*
X124131762Y-102728768D01*
X123792665Y-102706999D01*
X123455836Y-102751803D01*
X123134221Y-102861457D01*
X122938348Y-102966153D01*
X122831722Y-103239757D01*
X117748024Y-103239757D01*
X117878988Y-102660493D01*
X118213410Y-101800074D01*
X118671333Y-100998539D01*
X119257742Y-100254409D01*
X119326470Y-100180939D01*
X130063103Y-89498375D01*
X135244359Y-89498375D01*
X135289163Y-89835204D01*
X135398817Y-90156819D01*
X135503513Y-90352692D01*
X135777117Y-90459318D01*
X136797095Y-89439340D01*
X135777117Y-88419362D01*
X135503513Y-88525988D01*
X135353634Y-88830942D01*
X135266128Y-89159278D01*
X135244359Y-89498375D01*
X130063103Y-89498375D01*
X131328091Y-88239757D01*
X135956722Y-88239757D01*
X136976700Y-89259735D01*
X137996678Y-88239757D01*
X137890052Y-87966153D01*
X137585098Y-87816274D01*
X137256762Y-87728768D01*
X136917665Y-87706999D01*
X136580836Y-87751803D01*
X136259221Y-87861457D01*
X136063348Y-87966153D01*
X135956722Y-88239757D01*
X131328091Y-88239757D01*
X137836382Y-81764243D01*
X138423526Y-81275358D01*
X139058310Y-80919390D01*
X139747335Y-80685063D01*
X140489633Y-80577006D01*
X140748952Y-80571880D01*
X190727049Y-80571454D01*
X191682932Y-80641932D01*
G37*
G04 #@! TD.AperFunction*
D15*
X141526037Y-93435342D02*
X141437387Y-93568017D01*
X141300412Y-93514233D01*
X140273305Y-94541340D01*
X140287448Y-94555483D01*
X140107843Y-94735088D01*
X140093700Y-94720945D01*
X139066593Y-95748052D01*
X139174426Y-96022678D01*
X139481084Y-96173556D01*
X139811285Y-96261709D01*
X140092896Y-96279908D01*
X139946163Y-96499509D01*
X139815375Y-96815259D01*
X139748700Y-97150457D01*
X139748700Y-97492223D01*
X139815375Y-97827421D01*
X139946163Y-98143171D01*
X140136037Y-98427338D01*
X140377702Y-98669003D01*
X140661869Y-98858877D01*
X140723701Y-98884489D01*
X140723701Y-99564308D01*
X140720024Y-99601640D01*
X140723701Y-99638973D01*
X140734698Y-99750626D01*
X140746878Y-99790780D01*
X140778154Y-99893886D01*
X140848726Y-100025916D01*
X140911392Y-100102274D01*
X140943700Y-100141641D01*
X140972698Y-100165439D01*
X144707765Y-103900507D01*
X144692990Y-103936176D01*
X144626700Y-104269442D01*
X144626700Y-104609238D01*
X144692990Y-104942504D01*
X144823024Y-105256434D01*
X145011805Y-105538964D01*
X145252076Y-105779235D01*
X145481752Y-105932700D01*
X143221648Y-105932700D01*
X143451324Y-105779235D01*
X143691595Y-105538964D01*
X143880376Y-105256434D01*
X144010410Y-104942504D01*
X144076700Y-104609238D01*
X144076700Y-104269442D01*
X144010410Y-103936176D01*
X143880376Y-103622246D01*
X143691595Y-103339716D01*
X143451324Y-103099445D01*
X143168794Y-102910664D01*
X142854864Y-102780630D01*
X142521598Y-102714340D01*
X142181802Y-102714340D01*
X141848536Y-102780630D01*
X141534606Y-102910664D01*
X141252076Y-103099445D01*
X141011805Y-103339716D01*
X140823024Y-103622246D01*
X140692990Y-103936176D01*
X140626700Y-104269442D01*
X140626700Y-104609238D01*
X140692990Y-104942504D01*
X140823024Y-105256434D01*
X141011805Y-105538964D01*
X141252076Y-105779235D01*
X141481752Y-105932700D01*
X140913962Y-105932700D01*
X139985032Y-105003771D01*
X140010410Y-104942504D01*
X140076700Y-104609238D01*
X140076700Y-104269442D01*
X140010410Y-103936176D01*
X139880376Y-103622246D01*
X139691595Y-103339716D01*
X139451324Y-103099445D01*
X139168794Y-102910664D01*
X138854864Y-102780630D01*
X138521598Y-102714340D01*
X138181802Y-102714340D01*
X137848536Y-102780630D01*
X137534606Y-102910664D01*
X137252076Y-103099445D01*
X137015760Y-103335761D01*
X137015760Y-95549561D01*
X138397708Y-94167613D01*
X138373331Y-94258925D01*
X138351291Y-94599979D01*
X138396211Y-94938779D01*
X138506364Y-95262306D01*
X138612362Y-95460614D01*
X138886988Y-95568447D01*
X139914095Y-94541340D01*
X139899953Y-94527198D01*
X140079558Y-94347593D01*
X140093700Y-94361735D01*
X141120807Y-93334628D01*
X141076222Y-93221080D01*
X141740299Y-93221080D01*
X141526037Y-93435342D01*
G04 #@! TA.AperFunction,Conductor*
D16*
G36*
X141526037Y-93435342D02*
G01*
X141437387Y-93568017D01*
X141300412Y-93514233D01*
X140273305Y-94541340D01*
X140287448Y-94555483D01*
X140107843Y-94735088D01*
X140093700Y-94720945D01*
X139066593Y-95748052D01*
X139174426Y-96022678D01*
X139481084Y-96173556D01*
X139811285Y-96261709D01*
X140092896Y-96279908D01*
X139946163Y-96499509D01*
X139815375Y-96815259D01*
X139748700Y-97150457D01*
X139748700Y-97492223D01*
X139815375Y-97827421D01*
X139946163Y-98143171D01*
X140136037Y-98427338D01*
X140377702Y-98669003D01*
X140661869Y-98858877D01*
X140723701Y-98884489D01*
X140723701Y-99564308D01*
X140720024Y-99601640D01*
X140723701Y-99638973D01*
X140734698Y-99750626D01*
X140746878Y-99790780D01*
X140778154Y-99893886D01*
X140848726Y-100025916D01*
X140911392Y-100102274D01*
X140943700Y-100141641D01*
X140972698Y-100165439D01*
X144707765Y-103900507D01*
X144692990Y-103936176D01*
X144626700Y-104269442D01*
X144626700Y-104609238D01*
X144692990Y-104942504D01*
X144823024Y-105256434D01*
X145011805Y-105538964D01*
X145252076Y-105779235D01*
X145481752Y-105932700D01*
X143221648Y-105932700D01*
X143451324Y-105779235D01*
X143691595Y-105538964D01*
X143880376Y-105256434D01*
X144010410Y-104942504D01*
X144076700Y-104609238D01*
X144076700Y-104269442D01*
X144010410Y-103936176D01*
X143880376Y-103622246D01*
X143691595Y-103339716D01*
X143451324Y-103099445D01*
X143168794Y-102910664D01*
X142854864Y-102780630D01*
X142521598Y-102714340D01*
X142181802Y-102714340D01*
X141848536Y-102780630D01*
X141534606Y-102910664D01*
X141252076Y-103099445D01*
X141011805Y-103339716D01*
X140823024Y-103622246D01*
X140692990Y-103936176D01*
X140626700Y-104269442D01*
X140626700Y-104609238D01*
X140692990Y-104942504D01*
X140823024Y-105256434D01*
X141011805Y-105538964D01*
X141252076Y-105779235D01*
X141481752Y-105932700D01*
X140913962Y-105932700D01*
X139985032Y-105003771D01*
X140010410Y-104942504D01*
X140076700Y-104609238D01*
X140076700Y-104269442D01*
X140010410Y-103936176D01*
X139880376Y-103622246D01*
X139691595Y-103339716D01*
X139451324Y-103099445D01*
X139168794Y-102910664D01*
X138854864Y-102780630D01*
X138521598Y-102714340D01*
X138181802Y-102714340D01*
X137848536Y-102780630D01*
X137534606Y-102910664D01*
X137252076Y-103099445D01*
X137015760Y-103335761D01*
X137015760Y-95549561D01*
X138397708Y-94167613D01*
X138373331Y-94258925D01*
X138351291Y-94599979D01*
X138396211Y-94938779D01*
X138506364Y-95262306D01*
X138612362Y-95460614D01*
X138886988Y-95568447D01*
X139914095Y-94541340D01*
X139899953Y-94527198D01*
X140079558Y-94347593D01*
X140093700Y-94361735D01*
X141120807Y-93334628D01*
X141076222Y-93221080D01*
X141740299Y-93221080D01*
X141526037Y-93435342D01*
G37*
G04 #@! TD.AperFunction*
M02*
